<?xml version="1.0" standalone="no"?>
<!DOCTYPE svg PUBLIC "-//W3C//DTD SVG 20010904//EN"
 "http://www.w3.org/TR/2001/REC-SVG-20010904/DTD/svg10.dtd">
<svg version="1.0" xmlns="http://www.w3.org/2000/svg"
 width="436.000000pt" height="436.000000pt" viewBox="0 0 436.000000 436.000000"
 preserveAspectRatio="xMidYMid meet">
<metadata>
Created by potrace 1.14, written by Peter Selinger 2001-2017
</metadata>
<g transform="translate(0.000000,436.000000) scale(0.100000,-0.100000)"
fill="#000000" stroke="none">
<path d="M1990 3888 c-514 -48 -985 -337 -1275 -782 -178 -273 -265 -575 -265
-921 0 -181 9 -260 46 -413 117 -484 464 -909 918 -1127 197 -94 348 -136 581
-161 128 -14 169 -15 285 -4 74 6 178 21 230 32 348 72 693 272 926 538 216
247 356 539 409 860 20 116 20 432 0 553 -75 461 -343 878 -735 1141 -244 164
-508 257 -810 285 -129 12 -174 12 -310 -1z m645 -797 c120 -29 193 -59 267
-108 271 -178 192 -523 -121 -523 -89 0 -150 22 -210 76 -54 48 -84 104 -105
192 -18 78 -38 113 -86 155 -83 70 -233 85 -364 37 -82 -31 -174 -123 -221
-221 -49 -105 -75 -229 -75 -370 -1 -453 213 -757 587 -835 81 -17 261 -18
335 -3 141 29 310 149 381 271 l34 56 31 -20 c18 -11 32 -22 32 -24 0 -3 -10
-24 -21 -47 -121 -238 -411 -456 -714 -537 -277 -74 -543 -63 -800 34 -142 54
-286 161 -370 276 -124 170 -183 419 -156 665 27 245 107 425 263 590 187 198
449 317 782 355 127 15 440 4 531 -19z"/>
</g>
</svg>
