<svg width="361" height="91" viewBox="0 0 361 91" fill="none" xmlns="http://www.w3.org/2000/svg">
<path d="M92.4997 22.44H100.15V39.59C101.51 37.31 104.22 35.09 109.58 35.09C117.97 35.09 122.53 42 122.53 51.06C122.53 60.37 117.78 68.27 108.72 68.27C103.91 68.27 101.63 66.67 100.08 64.14C100.06 65.28 99.9597 66.41 99.7697 67.53H92.4297C92.4897 64.08 92.4897 60.56 92.4897 57.04L92.4997 22.44ZM107.36 41.31C101.81 41.31 99.7797 45.01 99.7797 51.79C99.7797 57.59 101.57 62.09 107.24 62.09C112.05 62.09 114.7 57.77 114.7 51.23C114.7 45.44 112.35 41.31 107.36 41.31Z" fill="#BB464B"/>
<path d="M153.73 59.75C153.73 62.71 153.98 66.72 154.16 67.52H146.82C146.57 66.84 146.39 65.24 146.32 64.07C145.21 65.98 142.93 68.26 137.13 68.26C129.55 68.26 126.34 63.26 126.34 58.39C126.34 51.23 132.08 47.91 141.39 47.91H146.19V45.75C146.19 43.29 145.39 40.7 140.64 40.7C136.44 40.7 135.58 42.61 135.15 44.95H127.82C128.25 39.77 131.52 35.02 140.96 35.08C149.22 35.14 153.73 38.41 153.73 45.81V59.75V59.75ZM146.27 52.71H142.14C136.51 52.71 134.05 54.37 134.05 57.95C134.05 60.54 135.78 62.64 139.17 62.64C145.46 62.64 146.26 58.32 146.26 53.63L146.27 52.71Z" fill="#BB464B"/>
<path d="M160.64 22.44H168.29V39.59C169.65 37.31 172.36 35.09 177.72 35.09C186.11 35.09 190.67 42 190.67 51.06C190.67 60.37 185.92 68.27 176.86 68.27C172.05 68.27 169.77 66.67 168.23 64.14C168.21 65.28 168.1 66.41 167.92 67.53H160.58C160.64 64.08 160.64 60.56 160.64 57.04V22.44ZM175.5 41.31C169.95 41.31 167.92 45.01 167.92 51.79C167.92 57.59 169.71 62.09 175.38 62.09C180.19 62.09 182.84 57.77 182.84 51.23C182.84 45.44 180.49 41.31 175.5 41.31Z" fill="#BB464B"/>
<path d="M200.29 35.82C204.24 48.21 207.07 57.46 207.68 60.55H207.76C208.56 57.22 210.54 50.06 214.8 35.82H222.45L211.55 68.63C208.45 77.82 205.98 80.42 198.76 80.42C197.47 80.41 196.17 80.33 194.89 80.17V73.86C195.57 73.92 196.49 73.98 197.3 73.98C200.75 73.98 202.35 72.69 203.77 68.56L192.12 35.81H200.29V35.82Z" fill="#BB464B"/>
<path d="M225.819 67.52V22.44H233.469V67.52H225.819Z" fill="#BB464B"/>
<path d="M269.67 51.61C269.67 61.04 264.12 68.26 254.19 68.26C244.57 68.26 238.96 61.22 238.96 51.73C238.96 42.11 244.7 35.08 254.56 35.08C263.75 35.08 269.67 41.68 269.67 51.61ZM246.73 51.67C246.73 58.08 249.63 62.15 254.38 62.15C259.19 62.15 261.84 58.14 261.84 51.73C261.84 44.88 259.19 41.18 254.26 41.18C249.57 41.19 246.73 44.76 246.73 51.67Z" fill="#BB464B"/>
<path d="M275.22 43.77C275.22 41.06 275.22 38.22 275.16 35.82H282.55C282.75 37.29 282.85 38.77 282.86 40.26C283.97 38.04 286.56 35.08 292.29 35.08C298.52 35.08 302.84 39.15 302.84 47.29V67.52H295.2V48.17C295.2 44.22 293.79 41.38 289.57 41.38C285.07 41.38 282.85 44.28 282.85 50.14V67.53H275.22V43.77Z" fill="#BB464B"/>
<path d="M310.12 67.52V57.28H318.32V67.52H310.12Z" fill="#BB464B"/>
<path d="M330.97 36.5V69.18C330.97 77.62 328.93 80.46 322.88 80.46C322.63 80.46 321.4 80.4 320.97 80.34V76.64C321.4 76.69 321.83 76.71 322.26 76.7C326.39 76.7 326.83 74.48 326.83 69.79V36.49H330.97V36.5ZM326.83 28.48V22.13H330.96V28.48H326.83Z" fill="#BB464B"/>
<path d="M340.34 58.82C341.33 62.52 344.04 64.8 348.61 64.8C353.66 64.8 355.7 62.52 355.7 59.31C355.7 56.04 354.29 54.5 347.81 52.96C339.37 50.93 337.45 48.33 337.45 44.2C337.45 39.88 340.72 35.76 348.12 35.76C355.58 35.76 358.91 40.2 359.4 44.58H355.33C354.84 42.24 352.99 39.22 347.99 39.22C343.07 39.22 341.64 41.63 341.64 43.91C341.64 46.5 342.99 47.8 348.91 49.21C357.98 51.37 360.01 54.39 360.01 59.01C360.01 64.56 355.57 68.26 348.48 68.26C340.96 68.26 337.01 64.37 336.21 58.83L340.34 58.82Z" fill="#BB464B"/>
<path d="M38.99 0L0 22.51V67.54L38.99 90.05L77.98 67.54V22.51L38.99 0Z" fill="white"/>
<path d="M77.98 22.51L65.78 15.47L54.04 22.25L66.24 29.29L77.98 22.51Z" fill="#E0684B"/>
<path d="M11.74 29.29L50.73 6.78003L38.99 0L0 22.51L11.74 29.29Z" fill="#E0684B"/>
<path d="M26.79 52.07L38.99 59.12L51.2 52.07L38.99 45.03L26.79 52.07Z" fill="#E0684B"/>
<path d="M66.24 29.29V60.76L38.99 76.49L11.74 60.76V29.29L0 22.51V67.54L38.99 90.05L77.98 67.54V22.51L66.24 29.29Z" fill="#BB464B"/>
<path d="M38.99 30.93L26.79 37.98V52.07L38.99 45.03L51.2 52.07V37.98L38.99 30.93Z" fill="#BB464B"/>
<path d="M66.2402 29.29L51.2002 37.98V52.07L38.9902 59.12V76.49L66.2402 60.76V29.29Z" fill="#E0DED8"/>
<path d="M11.7402 29.29L26.7902 37.98V52.07L38.9902 59.12V76.49L11.7402 60.76V29.29Z" fill="#D5D2CA"/>
<path d="M50.7302 6.78003L65.7802 15.47L54.0402 22.25L66.2402 29.29L51.2002 37.98L38.9902 30.93L26.7902 37.98L11.7402 29.29L50.7302 6.78003Z" fill="white"/>
</svg>