<svg width="213" height="90" viewBox="0 0 213 90" fill="none" xmlns="http://www.w3.org/2000/svg">
<path d="M114.37 62.94C114.37 66.62 109.98 71.14 106.41 71.14H103.16C103.16 48.64 103.16 23.41 103.16 18.93C103.15 18.37 103.6 17.92 104.16 17.91H113.36C113.91 17.91 114.37 18.37 114.37 18.94V62.94ZM99.38 79.03C99.38 81.36 98.24 85.26 90.61 85.26C75.82 85.26 66.75 73.68 66.75 65.37C66.75 65.37 66.73 38.51 66.73 18.93C66.72 18.37 67.17 17.92 67.73 17.91C67.73 17.91 67.73 17.91 67.74 17.91H76.95C77.5 17.91 77.96 18.37 77.96 18.94V62.1C77.96 69.23 83.6 75.01 90.56 75.01H99.39L99.38 79.03ZM114.06 14.04H103.46C101.21 14.04 99.37 15.92 99.37 18.23V71.14H90.54C85.67 71.14 81.72 67.09 81.72 62.1V18.22C81.72 15.91 79.89 14.03 77.63 14.03H67.03C64.77 14.03 62.94 15.91 62.94 18.22C62.94 37.35 62.96 65.36 62.96 65.36C62.96 80.08 79.06 89.12 90.61 89.12C98.35 89.12 103.16 85.24 103.16 78.99V75H106.41C112.11 75 118.15 68.79 118.15 62.92V18.21C118.16 15.91 116.32 14.04 114.06 14.04ZM51.43 70.2C51.44 70.76 50.99 71.21 50.43 71.22C50.43 71.22 50.43 71.22 50.42 71.22H41.21C40.65 71.21 40.2 70.76 40.2 70.19V27.03C40.2 19.9 34.55 14.12 27.6 14.12H18.77V10.1C18.77 7.78001 19.91 3.87 27.54 3.87C42.33 3.87 51.4 15.45 51.4 23.76C51.41 23.77 51.43 50.76 51.43 70.2ZM4.79001 71.23C4.23001 71.22 3.78001 70.76 3.79001 70.2V26.2C3.79001 22.52 8.17999 18 11.74 18H14.99C14.99 50.23 14.99 66.72 14.99 70.2C15 70.76 14.55 71.22 13.99 71.23H4.79001ZM55.19 23.77C55.19 9.04 39.09 0 27.55 0C19.81 0 14.99 3.88 14.99 10.13V14.12H11.74C6.02999 14.12 0 20.33 0 26.2V70.91C0 73.22 1.83 75.1 4.09 75.1H14.69C14.76 75.1 14.81 75.08 14.88 75.08C17.05 74.98 18.78 73.15 18.78 70.91V18H27.61C32.48 18 36.43 22.05 36.43 27.04V70.92C36.43 73.23 38.26 75.11 40.52 75.11H51.12C53.38 75.11 55.21 73.24 55.21 70.92C55.22 51.42 55.19 23.76 55.19 23.77ZM207.93 71.14C207.85 71.14 207.78 71.1 207.73 71.04L198.58 58.88H198.49V70.88C198.49 71.02 198.38 71.14 198.24 71.14H195.01C194.87 71.14 194.75 71.02 194.76 70.88V36.4C194.76 36.25 194.87 36.14 195.01 36.14H198.24C198.38 36.14 198.49 36.26 198.49 36.4V58.39H198.58L207.17 47.26C207.24 47.17 207.35 47.11 207.47 47.11H211.23C211.34 47.11 211.4 47.24 211.33 47.32L202.11 58.52L212.2 70.93C212.25 70.98 212.24 71.07 212.18 71.11C212.16 71.13 212.13 71.14 212.1 71.14H207.93ZM185.57 71.14C185.43 71.14 185.31 71.02 185.32 70.88V54.55C185.32 50.94 183.88 49.15 180.06 49.15C178.52 49.15 177.26 49.39 176.09 49.88C175.99 49.92 175.93 50.02 175.93 50.13V70.87C175.93 71.01 175.82 71.13 175.68 71.13H172.36C172.22 71.13 172.1 71.01 172.1 70.87V48.6C172.1 48.45 172.19 48.31 172.32 48.24C174.47 47.27 177.24 46.65 180.06 46.65C186.37 46.65 189.15 49.46 189.15 54.54V70.87C189.15 71.01 189.03 71.13 188.89 71.13H185.57V71.14ZM162.92 57.59C156.96 58.3 153.44 60 153.44 64.24C153.44 67.5 155.4 69.32 159.05 69.32C160.46 69.32 161.86 69.04 162.78 68.59C162.87 68.54 162.92 68.45 162.92 68.35V57.59ZM158.7 71.59C153.09 71.59 149.78 69.09 149.78 64.32C149.78 58.52 155.35 56.29 162.92 55.54V54.07C162.92 50.77 161.18 49.3 157.92 49.3C155.93 49.3 153.76 49.89 152.17 50.75C152.11 50.78 152.04 50.76 152.01 50.7C152.01 50.69 152 50.69 152 50.68L151.22 48.63C151.17 48.5 151.22 48.36 151.34 48.3C153.5 47.25 155.86 46.69 158.27 46.67C163.36 46.67 166.49 49.12 166.49 54.47V69.65C166.49 69.8 166.41 69.94 166.28 70C164.41 70.97 161.72 71.59 158.7 71.59ZM136.56 49.12C135.17 49.12 133.91 49.47 132.82 50.01V68.29C132.82 68.4 132.88 68.49 132.97 68.53C133.83 68.89 135.02 69.09 136.12 69.09C140.95 69.09 142.86 64.9 142.86 58.88C142.86 52.86 140.61 49.11 136.56 49.12ZM136 71.59C133.32 71.59 130.81 70.89 129.23 70.01C129.11 69.94 129.03 69.81 129.04 69.66V36.4C129.04 36.26 129.16 36.14 129.29 36.14H132.57C132.71 36.14 132.82 36.26 132.82 36.4V47.82C134.17 47.11 135.78 46.75 137.52 46.75C143 46.75 146.7 51.39 146.7 58.65C146.7 66.42 143 71.59 136 71.59Z" fill="#8A05BE"/>
</svg>