<svg width="235" height="56" viewBox="0 0 235 56" fill="none" xmlns="http://www.w3.org/2000/svg">
<path d="M35.2222 27.6503C35.2722 27.5803 35.3622 27.4603 35.4522 27.3203C36.1322 26.3503 39.4722 21.5203 38.7222 15.1503C38.5522 13.6803 37.5522 6.97027 31.7222 3.53027C29.1922 2.03027 26.7122 1.71027 25.2222 1.65027C25.2222 1.65027 14.2222 1.65027 6.22222 1.65027C-1.77778 1.65027 0.222222 7.65027 0.222222 7.65027V48.6503C0.132222 49.0103 0.0922173 49.3503 0.0922173 49.6703C0.0922173 52.8203 4.22222 53.6503 4.22222 53.6503C9.02222 53.8903 11.7022 54.0903 14.7222 54.1503C22.4222 54.3003 26.2722 54.3703 29.3522 53.0203C30.4522 52.5303 36.6222 49.8203 38.7222 43.1503C41.2522 35.1003 35.6822 28.2003 35.2222 27.6503ZM24.7222 43.1503H10.7222V33.1503C10.7222 33.1503 20.7222 33.1503 22.7222 33.1503C24.7222 33.1503 27.7222 35.1503 27.7222 38.1503C27.7222 41.1503 24.7222 43.1503 24.7222 43.1503ZM24.7222 22.1503H10.7222V12.1503C10.7222 12.1503 20.7222 12.1503 22.7222 12.1503C24.7222 12.1503 27.7222 14.1503 27.7222 17.1503C27.7222 20.1503 24.7222 22.1503 24.7222 22.1503Z" fill="#02AA31"/>
<path d="M54.2226 1.65029L68.2226 18.6503L80.2226 3.65029C80.2226 3.65029 84.7226 -1.84971 87.7226 1.15029C90.7226 4.15029 91.7226 3.15029 87.7226 9.15029C83.7226 15.1503 73.7226 28.1503 73.7226 28.1503V49.1503C73.7226 49.1503 74.7226 55.1503 67.7226 55.1503C66.7926 55.1503 65.1125 55.0803 63.8825 53.7803C62.9725 52.8203 62.7726 51.6503 62.7226 51.1503C62.7226 44.1503 62.7226 37.1503 62.7226 30.1503C46.7326 8.90029 46.2726 8.29031 46.2726 8.29031C46.2726 8.29031 45.5926 6.43029 45.7226 5.15029C45.9026 3.33029 47.8226 1.70029 49.7226 1.15029C51.8926 0.530291 53.7326 1.40029 54.2226 1.65029Z" fill="#02AA31"/>
<path d="M96.7227 5.15028C96.7227 20.1503 96.7227 35.1503 96.7227 50.1503C96.7327 50.6803 96.8227 51.9603 97.7227 53.1503C99.0627 54.9203 101.143 55.1003 101.723 55.1503C102.133 55.1903 104.113 55.3603 105.723 54.1503C107.533 52.7903 107.753 50.5203 108.723 45.1503V36.1503L127.723 52.1503C127.723 52.1503 133.723 58.1503 137.723 52.1503C141.723 46.1503 129.723 39.1503 129.723 39.1503C125.393 35.4803 121.053 31.8203 116.723 28.1503C123.053 22.1503 129.393 16.1503 135.723 10.1503C135.723 10.1503 140.723 5.15028 136.723 1.15028C132.723 -2.84972 125.723 5.15028 125.723 5.15028L108.723 19.1503V4.15028C108.183 2.39028 107.213 1.52028 106.723 1.15028C103.903 -0.979717 99.0127 0.0102978 97.3627 2.7903C96.8627 3.6403 96.7427 4.52028 96.7227 5.15028Z" fill="#02AA31"/>
<path d="M155.722 12.1503C155.722 15.4803 155.722 18.8203 155.722 22.1503C162.722 22.1503 169.722 22.1503 176.722 22.1503C179.102 22.4003 181.082 23.9903 181.722 26.1503C182.212 27.7903 181.902 29.7003 180.722 31.1503C179.222 32.9803 177.072 33.1303 176.722 33.1503C169.722 33.1503 162.722 33.1503 155.722 33.1503C155.722 36.4803 155.722 39.8203 155.722 43.1503H176.722C179.152 43.5903 181.082 45.1103 181.722 47.1503C181.822 47.4803 182.192 48.7503 181.722 50.1503C180.932 52.5103 178.122 54.1403 174.722 54.1503H150.722C150.722 54.1503 143.722 55.1503 144.722 46.1503C145.722 37.1503 144.722 8.15028 144.722 8.15028C144.202 5.81028 144.982 3.45028 146.722 2.15028C148.362 0.92028 150.232 1.09028 150.722 1.15028C154.052 1.15028 157.392 1.15028 160.722 1.15028C165.392 1.15028 170.052 1.15028 174.722 1.15028C178.032 0.80028 180.932 2.59028 181.722 5.15028C182.232 6.80028 181.872 8.79028 180.722 10.1503C179.292 11.8303 177.052 12.0503 175.722 12.1503C168.372 12.6803 157.522 12.2303 155.722 12.1503Z" fill="#02AA31"/>
<path d="M233.722 45.1503L215.722 3.15026C210.722 -1.84974 206.722 3.15026 206.722 3.15026L188.722 45.1503C188.552 45.4903 187.172 48.4503 188.722 51.1503C189.462 52.4403 190.512 53.0303 190.722 53.1503C192.732 54.2503 195.462 53.8203 197.722 52.1503C199.392 48.8203 201.052 45.4803 202.722 42.1503H220.722C221.582 45.8203 222.032 47.6903 222.722 49.1503C223.642 51.0903 224.342 52.5502 225.942 53.3702C228.372 54.6002 231.082 53.4403 231.722 53.1503C236.722 50.1503 233.722 45.1503 233.722 45.1503ZM206.722 31.1503L210.722 21.1503L215.722 31.1503H206.722Z" fill="#02AA31"/>
</svg>