<svg width="272" height="73" viewBox="0 0 272 73" fill="none" xmlns="http://www.w3.org/2000/svg">
<path d="M199.69 2.58C196.74 2.58 194.34 4.93 194.34 8.03C194.34 11.03 196.74 13.38 199.69 13.38C202.64 13.38 205.04 11.03 205.04 8.03C204.99 5.03 202.64 2.58 199.69 2.58ZM169.79 52.68C163.24 52.63 157.74 47.23 157.74 38.68C157.74 30.08 163.19 24.73 169.79 24.63C176.34 24.68 181.84 30.08 181.84 38.68C181.84 47.23 176.34 52.68 169.79 52.68ZM123.19 52.68C116.64 52.63 111.14 47.23 111.14 38.68C111.14 30.08 116.59 24.73 123.19 24.63C129.74 24.68 135.24 30.08 135.24 38.68C135.19 47.23 129.74 52.68 123.19 52.68ZM195.79 58.63H203.64V18.78L195.79 19.48V58.63ZM263.54 18.78L252.24 45.03L240.19 18.78H224.54V15.33C224.54 11.23 226.44 9.53 230.34 9.53C231.54 9.53 232.94 9.73 234.34 10.08L236.09 3.83C233.74 3.03 231.24 2.63 228.39 2.63C220.79 2.63 216.69 7.58 216.69 14.78V18.78L209.99 19.33V25.63H216.69V58.63H224.54V25.58H234.79L248.39 53.93C247.24 56.43 245.84 59.23 243.64 60.93C241.69 62.48 239.19 62.63 236.79 62.13L234.94 68.58C238.49 69.88 242.94 69.73 246.24 67.93C249.84 65.93 252.24 62.18 253.84 58.48L271.84 18.63H263.49V18.78H263.54V18.78ZM169.79 17.68C164.99 17.68 160.74 19.53 157.64 22.63V3.73L150.29 4.38V58.68H157.64V54.83C160.74 57.93 164.99 59.78 169.79 59.78C180.89 59.73 189.39 50.98 189.39 38.73C189.39 26.48 180.84 17.78 169.79 17.68ZM83.9398 24.73C88.2399 24.78 92.1398 27.33 94.2398 31.23L100.59 27.28C97.1898 21.43 91.1398 17.68 83.9398 17.68C72.7899 17.73 64.3398 26.48 64.3398 38.73C64.3398 50.98 72.7899 59.68 83.9398 59.78C91.1398 59.78 97.1898 56.08 100.59 50.18L94.2398 46.23C92.1398 50.18 88.2399 52.73 83.9398 52.73C77.3898 52.68 71.8898 47.28 71.8898 38.68C71.8898 30.08 77.3898 24.78 83.9398 24.73ZM135.34 22.63C132.24 19.53 127.99 17.68 123.19 17.68C112.09 17.73 103.59 26.48 103.59 38.73C103.59 50.98 112.04 59.68 123.19 59.78C127.99 59.78 132.24 57.93 135.34 54.83V58.68H142.69V18.73L135.34 19.38V22.63Z" fill="#212240"/>
<path d="M29.46 19.87C32.16 19.87 34.61 21.01 36.39 22.78C40.19 26.65 46.41 26.65 50.28 22.78C54.08 18.91 54.08 12.62 50.28 8.71C44.95 3.38 37.59 0 29.46 0C13.22 0 0 13.36 0 29.85C0 38.09 3.29998 45.56 8.63998 50.96L29.46 72.07L50.28 50.96C54.08 47.09 54.08 40.8 50.28 36.89C46.48 33.02 40.26 33.02 36.39 36.89L29.46 43.96L22.53 36.89C20.79 35.11 19.69 32.63 19.69 29.85C19.62 24.35 24.02 19.87 29.46 19.87Z" fill="#212240"/>
<path d="M19.0502 40.41L29.5002 51L39.9502 40.41C41.8702 38.49 44.9602 38.49 46.8802 40.41C48.8002 42.33 48.8002 45.49 46.8802 47.45L29.5402 65.04L12.1302 47.45C7.72022 42.94 4.9502 36.72 4.9502 29.86C4.9502 16.14 15.9302 4.98001 29.4702 4.98001C36.2602 4.98001 42.3702 7.79 46.8102 12.27C48.7302 14.19 48.7302 17.35 46.8102 19.31C44.8902 21.23 41.8002 21.23 39.8802 19.31C37.2102 16.61 33.5202 14.94 29.4302 14.94C21.2902 14.94 14.6802 21.62 14.6802 29.9C14.7502 33.94 16.3502 37.71 19.0502 40.41Z" fill="white"/>
</svg>