<svg width="807" height="246" viewBox="0 0 807 246" fill="none" xmlns="http://www.w3.org/2000/svg">
<path d="M56.388 143.104C60.0179 149.825 63.4663 156.819 68.1852 162.905C72.7225 168.809 78.0766 174.622 84.1566 179.073C89.057 182.615 98.6761 187.157 106.48 186.794C113.559 186.43 119.457 186.975 124.811 182.524C129.802 178.437 132.616 174.531 133.704 170.535C136.336 160.907 136.518 152.914 132.434 144.012C130.801 140.47 130.528 136.473 128.623 133.113C123.269 124.029 118.55 114.492 110.836 106.862C107.751 103.865 104.121 101.413 99.2206 102.048C93.9573 102.684 92.4146 106.045 95.5907 110.314C97.6779 113.221 100.219 115.855 101.762 119.034C107.297 130.024 113.468 140.924 113.559 153.549C113.559 156.819 113.831 160.453 109.657 161.906C105.664 163.268 100.4 163.632 96.7705 160.725C88.0587 153.731 86.879 149.644 81.9787 143.74C78.2581 139.198 76.2616 133.294 73.267 128.208C68.8204 120.578 67.3684 112.04 67.0962 103.865C66.9147 97.8702 66.1887 89.6954 71.0891 84.3364C73.8115 81.339 75.5357 78.6141 79.9823 76.9791C85.0641 75.0717 89.6922 74.89 95.137 76.9791C104.575 80.5215 112.016 86.698 119.729 92.602C123.178 95.2361 134.884 110.496 137.788 114.674C141.055 119.488 143.414 124.938 146.5 129.933C152.308 139.562 155.937 150.007 159.386 160.453C161.745 167.628 163.56 173.896 163.923 176.075C164.286 178.437 165.738 194.06 164.195 199.237C163.197 202.416 156.663 212.68 150.765 218.13C146.409 222.217 137.97 222.944 131.254 223.489C128.169 223.762 125.084 224.397 122.089 224.307C119.276 224.125 116.553 223.126 113.831 222.49C113.649 222.49 113.559 222.217 113.377 222.217C103.032 220.038 94.6833 213.77 85.9716 208.593C81.7065 206.05 77.8951 202.871 73.993 199.873C72.178 198.511 70.4538 196.876 68.9111 195.241C57.6585 183.705 48.2208 170.807 40.0536 157.092C33.6105 146.192 29.1639 134.929 25.9878 122.849C24.2636 116.218 21.4505 105.046 21.0875 102.412C20.7245 99.7776 20.8152 89.2413 21.5412 82.7015C22.3579 75.2533 24.2636 67.7144 26.986 60.6296C32.4308 46.7325 40.3258 40.6468 51.2155 33.2895C61.7421 25.8414 72.178 21.4815 86.4253 21.9357C96.226 22.299 104.847 23.4798 113.831 27.2947C119.82 29.838 125.446 31.6546 130.438 34.9245C135.701 38.3761 138.151 41.101 141.962 44.1892C150.311 50.9107 157.208 59.1763 164.74 66.6244C170.729 72.5284 175.085 79.7041 179.985 86.153C184.16 91.512 187.064 97.5977 190.421 103.502C193.688 109.224 196.592 114.856 199.315 120.76C201.129 124.756 203.943 129.298 208.389 131.114C212.473 132.84 215.105 130.297 216.012 126.028C218.19 115.764 216.647 108.316 212.564 98.6877C209.297 90.9671 205.576 83.4281 201.039 76.3433C196.501 69.2585 190.603 62.9912 185.612 56.0881C184.432 54.3623 182.98 52.8181 181.528 51.3649C177.354 47.1866 173.179 43.1901 169.005 39.0119C167.462 37.5586 166.101 35.9236 164.649 34.3795C163.197 32.8354 161.836 31.1096 160.203 29.838C154.032 24.7515 147.952 19.8466 141.599 15.3959C138.877 13.4884 135.519 12.2168 132.253 11.1268C125.446 8.76524 118.822 5.85866 112.197 3.40623C103.758 0.227151 95.3185 0.317981 87.1513 0.0454892C78.1673 -0.227003 68.8204 0.681305 60.1087 3.95121C52.3044 6.8578 45.4077 10.7635 38.6924 15.5775C31.7956 20.4824 24.9896 25.2964 19.6355 31.8362C14.2814 38.3761 10.3793 45.4609 7.11243 53.2723C2.21209 65.4436 -0.328824 77.8874 0.0341642 90.7854C0.306405 98.8693 2.93807 121.214 3.75479 124.211C6.84019 135.928 11.1053 147.01 16.6409 158.091C21.9042 168.627 28.2565 178.437 34.7903 188.156C40.4166 196.422 48.3116 203.325 54.7546 211.227C60.4717 218.221 67.8222 222.672 75.7172 226.85C83.0677 230.756 89.5107 236.75 97.1334 239.566C107.206 243.199 117.552 247.378 128.804 245.561C135.247 244.562 142.053 244.925 148.224 243.109C159.204 239.839 168.37 233.935 174.994 224.397C179.985 217.222 183.525 209.41 184.795 201.145C186.156 192.243 186.428 182.888 185.43 173.896C184.432 164.812 180.258 149.19 179.078 147.1C177.535 144.466 170.275 129.752 166.736 120.76C163.379 112.04 157.389 104.955 151.672 97.8702C144.322 88.6055 136.518 79.4316 127.715 71.4385C122.18 66.3519 108.931 59.6305 106.753 58.9038C105.573 58.5405 95.3185 55.8156 90.8719 55.5431C82.5232 54.9981 74.7189 54.2714 66.824 59.5396C60.2902 63.8995 52.0322 72.7101 49.1283 81.1573C44.5002 94.4186 43.2297 108.497 46.9504 122.576C47.3133 124.029 48.9468 128.753 50.0358 131.114C52.4859 136.292 56.388 143.104 56.388 143.104Z" fill="#272927"/>
<path d="M460.163 156.862L452.644 153.163V101.023C452.644 86.9504 439.995 78 421.742 78C405.633 78 388.812 87.0653 381.776 102.103C381.064 103.534 380.819 105.326 382.25 106.275C383.682 107.347 385.236 107.11 386.546 105.801C392.633 99.7137 401.461 93.512 411.36 93.512C420.663 93.512 426.275 98.1671 426.275 105.678V114.743L411.598 119.996C387.977 128.464 377.48 137.537 377.48 150.3C377.48 161.754 385.711 169.747 397.762 169.747C406.95 169.747 416.85 164.855 425.915 155.667H427.11C427.944 163.898 434.743 169.747 442.499 169.747C448.823 169.747 454.428 166.647 460.277 160.682C461.235 159.725 461.349 159.128 461.349 158.538C461.349 157.949 461.12 157.336 460.163 156.862ZM426.283 150.063C423.182 153.638 419.001 155.43 414.829 155.43C406.958 155.43 401.468 149.825 401.468 141.947C401.468 134.191 406.835 128.104 418.289 123.816L426.283 120.83V150.063Z" fill="#272927"/>
<path d="M369.732 143.616C368.775 142.904 367.588 143.019 366.271 143.976C361.976 147.199 353.86 149.94 347.061 149.94C333.463 149.94 321.174 138.961 321.174 117.01C321.174 100.066 331.197 88.1372 341.816 86.1082L362.458 106.513C363.89 107.944 366.394 107.347 366.394 104.844V84.3242C366.394 83.1298 365.681 82.0579 364.602 81.5832C358.99 79.4318 351.234 78 343.96 78C316.519 78 296 96.6129 296 127.032C296 155.07 315.807 169.862 337.161 169.862C351.479 169.862 363.645 162.466 370.329 146.717C370.804 145.522 370.681 144.336 369.732 143.616Z" fill="#272927"/>
<path d="M764.538 96.6129C764.538 89.6914 769.193 85.8785 776.229 85.8785C778.258 85.8785 779.805 86.2384 781.833 86.9504L798.18 101.505C799.734 102.937 802.115 101.865 802.115 99.7137V84.6841C802.115 83.2523 801.403 82.4178 800.324 82.0579C794.237 79.6691 783.977 78 776.106 78C754.63 78 740.312 89.8139 740.312 107.232C740.312 137.537 783.02 129.069 783.02 149.588C783.02 157.941 778.725 161.754 770.494 161.754C769.185 161.754 766.322 161.279 764.645 160.56L743.528 143.141C742.096 141.947 739.593 142.666 739.593 144.933V162.229C739.593 163.538 740.305 164.373 741.384 164.855C748.068 167.481 760.472 169.747 769.185 169.747C792.568 169.747 807 158.056 807 138.846C807.008 109.614 764.538 116.657 764.538 96.6129Z" fill="#272927"/>
<path d="M730.841 156.862L723.323 153.163V101.023C723.323 86.9504 710.682 78 692.421 78C676.312 78 659.491 87.0653 652.454 102.103C651.742 103.534 651.497 105.326 652.929 106.275C654.361 107.347 655.915 107.11 657.224 105.801C663.311 99.7137 672.139 93.512 682.039 93.512C691.342 93.512 696.954 98.1671 696.954 105.678V114.743L682.276 119.996C658.656 128.464 648.159 137.537 648.159 150.3C648.159 161.754 656.39 169.747 668.441 169.747C677.629 169.747 687.529 164.855 696.594 155.667H697.788C698.623 163.898 705.422 169.747 713.178 169.747C719.502 169.747 725.107 166.647 730.956 160.682C731.913 159.725 732.028 159.128 732.028 158.538C732.028 157.949 731.798 157.336 730.841 156.862ZM696.961 150.063C693.861 153.638 689.68 155.43 685.507 155.43C677.637 155.43 672.147 149.825 672.147 141.947C672.147 134.191 677.514 128.586 688.968 124.291L696.961 121.305V150.063Z" fill="#272927"/>
<path d="M651.864 80.6255H629.193C627.639 80.6255 626.927 82.5319 628.121 83.6115L637.547 92.2021L619.293 145.529L598.652 89.6984L605.573 83.6115C606.768 82.6545 605.933 80.6255 604.379 80.6255H565.484C564.052 80.6255 563.34 82.2946 564.289 83.3665L570.017 89.6907L598.652 161.394C600.795 166.761 603.782 169.862 608.551 169.862C613.444 169.862 616.667 167.718 619.286 160.674L645.41 92.1944L653.281 83.7264C654.368 82.5319 653.533 80.6255 651.864 80.6255Z" fill="#272927"/>
<path d="M558.279 158.293V101.505C558.279 87.785 547.897 78 532.982 78C521.888 78 511.988 83.2523 502.801 93.7493H501.606L500.657 80.3888C500.534 78.9571 499.225 78 497.081 78.5972L469.403 85.8785C467.497 86.3532 467.014 88.2673 468.446 89.5766L475.965 96.0157V158.293L469.526 164.258C468.331 165.33 469.166 167.244 470.72 167.244H507.823C509.378 167.244 510.09 165.337 508.895 164.258L502.456 158.293V100.074C507.946 95.6558 513.313 93.512 518.68 93.512C526.796 93.512 531.803 98.5193 531.803 106.758V157.819L525.004 164.258C523.933 165.33 524.645 167.244 526.199 167.244H563.539C565.094 167.244 565.806 165.337 564.734 164.258L558.279 158.293Z" fill="#272927"/>
</svg>
