<svg width="226" height="51" viewBox="0 0 226 51" fill="none" xmlns="http://www.w3.org/2000/svg">
<path d="M225.57 0.753252C225.57 0.493252 225.34 0.263252 225.08 0.263252C221.43 0.153252 219.06 1.65325 217.56 3.31325C215.53 1.54325 212.37 0.113252 207.56 0.083252H207.52H207.48C200.34 0.123252 196.88 3.24325 195.19 5.98325C193.46 8.87325 193.39 11.9633 193.39 12.5633V12.9033C193.39 13.5433 193.47 16.5833 195.23 19.4833C195.98 20.7233 197.07 22.0433 198.73 23.0933C196.06 24.6333 193.65 27.3833 193.65 32.3033V34.8932C193.65 35.1532 193.84 35.3833 194.14 35.3833H214.55C216.99 35.3833 218.23 37.0033 218.61 38.5433C219.06 40.4633 218.31 43.0933 215.04 44.8233C214.85 44.9033 214.7 45.0833 214.7 45.2733C214.7 45.3833 214.74 45.4633 214.78 45.5333L217.45 50.3833C217.53 50.5333 217.71 50.6833 217.9 50.6833C217.98 50.6833 218.05 50.6833 218.13 50.6433C224.3 47.4833 225.65 41.5433 224.67 37.1833C223.58 32.4133 219.56 29.2133 214.59 29.2133L200.49 29.5533C201.28 25.3033 206.24 25.3833 206.84 25.3833C207.07 25.3833 207.29 25.4233 207.55 25.4233H207.59H207.63C214.77 25.3833 218.23 22.2633 219.92 19.5233C221.65 16.6333 221.72 13.5433 221.72 12.9433V12.6033C221.72 12.0733 221.64 9.82325 220.59 7.37325C221.53 6.73325 223 6.13325 225.1 6.24325C225.36 6.24325 225.59 6.01325 225.59 5.79325V0.753252H225.57V0.753252ZM214.56 12.9733C214.56 14.3233 213.58 19.2533 207.53 19.2533C201.48 19.2133 200.5 14.3233 200.5 12.9733V12.5233C200.5 11.1733 201.48 6.24325 207.53 6.20325C213.58 6.24325 214.56 11.1333 214.56 12.5233V12.9733Z" fill="#4DA4E0"/>
<path d="M188.729 13.2033C188.729 12.5633 188.649 9.33325 187.109 6.28325C185.609 3.39325 182.489 0.083252 176.059 0.083252C176.059 0.083252 176.059 0.083252 176.019 0.083252C176.019 0.083252 176.019 0.083252 175.979 0.083252C171.729 0.083252 168.949 1.81325 167.109 3.61325V1.24325V1.20325C167.109 0.943253 166.879 0.713251 166.619 0.713251H160.939C160.679 0.713251 160.449 0.943253 160.449 1.20325C160.449 1.20325 160.449 1.20325 160.449 1.24325V35.0433C160.489 35.3033 160.679 35.4933 160.939 35.4933H160.979H167.029C167.289 35.4933 167.519 35.3033 167.519 35.0433V35.0033V12.5633C167.669 10.7633 168.909 6.28325 174.549 6.28325C180.599 6.32325 181.579 11.4733 181.579 12.9333V34.9632V35.0033C181.579 35.2633 181.809 35.4933 182.069 35.4933H188.199C188.459 35.4933 188.689 35.2633 188.689 35.0033V34.9632V13.2033H188.729Z" fill="#93BA2F"/>
<path d="M154.889 12.8633C154.889 10.0833 153.499 3.61328 147.219 1.02328C140.829 -1.60672 132.289 1.55328 130.189 2.49328C129.999 2.53328 129.809 2.72328 129.809 2.94328C129.809 3.02328 129.849 3.09328 129.889 3.17328L131.619 8.06328C131.699 8.25328 131.849 8.36328 132.069 8.36328C132.149 8.36328 132.179 8.36328 132.259 8.32328C134.589 7.12328 140.939 4.97328 144.819 6.74328C148.579 8.47328 148.239 12.4533 148.279 12.9133V13.0633V13.8933C146.439 12.5733 143.919 11.3033 140.309 11.2633H140.269H140.229C133.799 11.3033 130.679 14.3833 129.179 17.1233C127.599 20.0133 127.529 23.0233 127.529 23.6633C127.529 24.2633 127.609 27.3133 129.179 30.1633C130.679 32.9033 133.799 35.9933 140.229 36.0233H140.269H140.309C144.069 36.0233 146.659 34.6733 148.509 33.2433V34.8933C148.509 35.1533 148.739 35.3833 148.999 35.3833C148.999 35.3833 148.999 35.3833 149.039 35.3833H154.379C154.639 35.3833 154.869 35.1533 154.869 34.8933V16.5433V12.9733C154.889 13.0133 154.889 12.9333 154.889 12.8633ZM148.309 23.9133C148.309 25.3033 147.329 30.1533 141.469 30.1533C135.569 30.1133 134.629 25.3033 134.629 23.9133V23.3533C134.629 21.9633 135.609 17.1133 141.469 17.1133C147.369 17.1533 148.309 21.9633 148.309 23.3533V23.9133Z" fill="#EA991B"/>
<path d="M122.26 6.32329C120.76 3.43329 117.64 0.123291 111.21 0.123291H111.17H111.13C106.88 0.123291 104.1 1.89329 102.22 3.69329V1.25329C102.22 0.993292 101.99 0.763292 101.73 0.763292H101.69H96.0896H96.0496C95.7896 0.763292 95.5596 0.993292 95.5596 1.25329V49.4533C95.5596 49.7133 95.7896 49.9433 96.0496 49.9433H96.0896H102.14H102.18H102.22H102.26C102.49 49.9033 102.67 49.7133 102.67 49.4933V49.4533V33.0533C104.51 34.6733 107.18 36.1733 111.13 36.1733H111.17H111.21C117.64 36.1333 120.76 32.8633 122.26 29.9733C123.84 26.9233 123.91 23.7333 123.91 23.0533V13.2433C123.91 12.5633 123.84 9.36329 122.26 6.32329ZM116.77 23.3133C116.77 24.7833 115.79 29.9333 109.74 29.9633C103.69 29.9233 102.71 24.7733 102.71 23.3133V12.8933C102.71 11.4233 103.69 6.27329 109.74 6.24329C115.79 6.28329 116.77 11.3933 116.77 12.8933V23.3133Z" fill="#D83128"/>
<path d="M28.95 13.2033C28.95 12.5633 29.03 9.33325 30.75 6.28325C32.4 3.39325 35.9 0.083252 43.04 0.083252H43.08H43.12C50.26 0.123252 53.72 3.39325 55.41 6.28325C57.18 9.33325 57.21 12.5233 57.21 13.2033V23.0133C57.21 23.6533 57.13 26.8833 55.41 29.9333C53.76 32.8233 50.26 36.1333 43.12 36.1333H43.08H43.04C35.9 36.0933 32.44 32.8233 30.75 29.9333C29.02 26.8833 28.95 23.6933 28.95 23.0133V13.2033ZM36.05 23.3133C36.05 24.7833 37.03 29.9333 43.08 29.9633C49.13 29.9233 50.11 24.7733 50.11 23.3133V12.8933C50.11 11.4233 49.13 6.27325 43.08 6.24325C37.03 6.28325 36.05 11.4333 36.05 12.8933V23.3133ZM26.84 29.0633C26.84 28.8733 26.73 28.6833 26.58 28.6133C26.58 28.6133 26.58 28.6133 26.54 28.6133L21.16 25.9433C21.08 25.9033 21.01 25.8633 20.93 25.8633C20.74 25.8633 20.59 25.9733 20.52 26.1233C20.52 26.1233 20.52 26.1633 20.48 26.1633C19.62 27.9633 17.81 29.8833 14.13 29.9233C8.07997 29.8833 7.09998 24.7333 7.09998 23.2733V12.8633C7.09998 11.3933 8.07997 6.24325 14.13 6.21325C17.85 6.21325 19.66 8.20325 20.52 10.0433C20.6 10.2333 20.78 10.3433 20.97 10.3433C21.05 10.3433 21.12 10.3033 21.2 10.2633L26.54 7.48325C26.69 7.40325 26.8 7.25325 26.8 7.07325C26.8 6.99325 26.8 6.92325 26.76 6.88325C26.65 6.69325 26.57 6.47325 26.46 6.28325C24.81 3.39325 21.31 0.083252 14.17 0.083252H14.13H14.09C6.95 0.123252 3.48999 3.39325 1.79999 6.28325C0.0299878 9.33325 0 12.5233 0 13.2033V23.0133C0 23.6533 0.0799878 26.8833 1.79999 29.9333C3.44999 32.8233 6.95 36.1333 14.09 36.1333H14.13H14.17C21.31 36.0933 24.77 32.8233 26.46 29.9333C26.57 29.7033 26.69 29.5233 26.8 29.2933C26.8 29.2133 26.84 29.1733 26.84 29.0633ZM90.23 34.9632V1.24325C90.23 0.983252 90 0.753252 89.74 0.753252H83.61C83.35 0.753252 83.12 0.983252 83.12 1.24325V1.28325V13.2033V23.3133C83.12 24.7833 82.14 29.9333 76.09 29.9633C70.04 29.9233 69.06 24.8133 69.06 23.3133V1.28325C69.06 1.02325 68.83 0.793251 68.57 0.793251H62.48C62.22 0.793251 61.99 1.02325 61.99 1.28325V23.0533C61.99 23.6933 62.07 26.9233 63.64 29.9733C65.14 32.8633 68.26 36.1732 74.69 36.1732H74.73H74.77C79.02 36.1732 81.8 34.4432 83.68 32.6032V35.0133C83.68 35.2733 83.91 35.5033 84.17 35.5033C84.17 35.5033 84.17 35.5033 84.21 35.5033H89.85C90 35.4933 90.23 35.2632 90.23 34.9632Z" fill="#560000"/>
</svg>