<svg width="236" height="128" viewBox="0 0 236 128" fill="none" xmlns="http://www.w3.org/2000/svg">
<path d="M144.84 2.12988C132.93 -2.64012 119.77 0.839874 111.71 10.1899C79.8697 44.9799 79.8698 44.9799 79.8698 44.9799C79.2998 45.3599 79.4898 45.8899 80.2498 46.0799C88.4898 46.6499 88.4898 46.6499 88.4898 46.6499C89.2098 46.6499 89.3998 47.2199 89.0598 47.7499C68.3698 70.6299 68.3698 70.6299 68.3698 70.6299C67.9898 70.8199 68.3698 71.5399 68.9398 71.3499C98.4398 61.8199 98.4398 61.8199 98.4398 61.8199C99.1598 61.6299 99.7297 62.1999 99.3497 62.7299C95.2997 69.8799 95.2997 69.8799 95.2997 69.8799C95.1097 70.2599 95.4897 70.7899 96.0197 70.7899C138.68 60.9199 138.68 60.9199 138.68 60.9199C148.74 59.4499 157.89 52.2999 161.94 41.8599C167.91 26.0999 160.43 8.36988 144.84 2.12988ZM149.61 33.6299C140.08 37.6399 140.08 37.6399 140.08 37.6399C139.7 37.6399 139.7 37.6399 139.7 37.6399C137.51 48.4599 137.51 48.4599 137.51 48.4599C137.32 48.8399 136.94 49.0299 136.6 48.6499C129.64 40.2199 129.64 40.2199 129.64 40.2199C129.45 40.2199 129.45 40.2199 129.45 40.2199C90.4597 57.4299 90.4597 57.4299 90.4597 57.4299H90.2697L90.0797 57.2399C90.0797 57.0499 90.0797 57.0499 90.2697 57.0499C123.97 31.0299 123.97 31.0299 123.97 31.0299C119.77 20.9699 119.77 20.9699 119.77 20.9699C119.58 20.5899 119.96 20.0599 120.49 20.2499C130.74 22.8199 130.74 22.8199 130.74 22.8199C138.8 15.4799 138.8 15.4799 138.8 15.4799C139.18 15.2899 139.71 15.4799 139.71 15.8599C140.62 26.8699 140.62 26.8699 140.62 26.8699C149.77 32.3499 149.77 32.3499 149.77 32.3499C150.18 32.6799 150.18 33.2499 149.61 33.6299Z" fill="#D82227"/>
<path d="M54.5696 119.86H47.2695L52.9396 92.9299L60.8096 90.0199L54.5696 119.86Z" fill="#D82227"/>
<path d="M33.8801 112.37C33.8801 112.56 33.8801 112.94 33.8801 112.94C33.8801 114.23 34.6001 114.6 36.6401 114.6C38.6801 114.6 41.4101 114.22 42.8801 113.69C42.8801 119.17 42.8801 119.17 42.8801 119.17C41.0601 119.89 37.7401 120.27 35.2001 120.27C29.3401 120.27 26.5801 118.61 26.5801 113.12C26.5801 107.83 28.9601 99.3899 38.3001 99.3899C44.3501 99.3899 46.1701 102.15 46.1701 105.06C46.1801 108.7 43.0401 111.99 33.8801 112.37ZM37.9301 104.46C36.1101 104.46 35.1701 105.93 34.8301 107.56C38.1201 107.56 39.2201 106.46 39.2201 105.56C39.2201 105.03 38.4601 104.46 37.9301 104.46Z" fill="#D82227"/>
<path d="M66.8596 98.4499C64.4796 98.4499 62.8096 96.7899 62.8096 94.5899C62.8096 91.6799 64.8095 90.0099 67.1995 90.0099C69.7695 90.0099 71.2496 91.6699 71.2496 93.8699C71.2496 96.7899 69.4296 98.4499 66.8596 98.4499Z" fill="#D82227"/>
<path d="M62.4801 100.08H69.9601L66.1101 119.48H58.6201L61.3801 105.94" fill="#D82227"/>
<path d="M91.2205 100.08C88.6505 106.47 85.7405 112.9 82.2605 119.48C73.1105 119.48 73.1105 119.48 73.1105 119.48C71.8205 113.24 71.4505 106.85 71.6405 100.08C78.9805 100.08 78.9805 100.08 78.9805 100.08C78.9805 103.18 78.9805 106.47 78.9805 109.61C79.1705 110.33 79.1705 111.08 79.3605 111.99C79.5505 111.08 79.9305 110.33 80.2705 109.61C81.5605 106.32 82.8405 102.84 83.5605 100.08" fill="#D82227"/>
<path d="M97.2703 112.37C97.0803 112.56 97.0803 112.94 97.0803 112.94C97.0803 114.23 97.9903 114.6 99.9903 114.6C101.99 114.6 104.57 114.22 106.23 113.69C106.23 119.17 106.23 119.17 106.23 119.17C104.23 119.89 101.09 120.27 98.5503 120.27C92.6903 120.27 89.7803 118.61 89.7803 113.12C89.7803 107.83 92.1603 99.3899 101.69 99.3899C107.74 99.3899 109.56 102.15 109.56 105.06C109.52 108.7 106.42 111.99 97.2703 112.37ZM101.09 104.46C99.4303 104.46 98.3303 105.93 97.9903 107.56C101.47 107.56 102.38 106.46 102.38 105.56C102.37 105.03 101.84 104.46 101.09 104.46Z" fill="#D82227"/>
<path d="M123.82 106.85C123.44 106.85 122.53 106.66 122 106.66C120.34 106.66 119.09 108.32 118.52 111.43C116.86 119.49 116.86 119.49 116.86 119.49C109.52 119.49 109.52 119.49 109.52 119.49C113.19 100.09 113.19 100.09 113.19 100.09C118.67 100.09 118.67 100.09 118.67 100.09C119.05 102.66 119.05 102.66 119.05 102.66C120.71 100.47 122.15 99.3699 124.19 99.3699C125.1 99.3699 125.48 99.5599 125.85 99.5599" fill="#D82227"/>
<path d="M147.04 100.08C143.75 108.7 140.99 115.09 137.89 119.48C133.69 125.87 130.02 127.35 126.17 127.35C125.07 127.35 123.79 127.16 123.26 126.78C124.36 121.3 124.36 121.3 124.36 121.3C127.12 121.3 127.12 121.3 127.12 121.3C128.41 121.3 128.78 120.58 129.69 119.48C128.22 114.19 127.5 106.85 127.69 100.08C135.22 100.08 135.22 100.08 135.22 100.08C135.03 103.18 135.03 106.47 135.22 109.42C135.22 110.33 135.41 111.08 135.41 111.99C135.79 111.08 136.13 110.33 136.51 109.61C137.61 106.51 138.89 102.84 139.8 100.08" fill="#D82227"/>
<path d="M175.82 119.48H167.91L169.77 109.61H163.19L161.33 119.48H153.47L158.42 93.4999H166.29L164.43 102.84H171.24L172.87 93.4999H180.73" fill="#D82227"/>
<path d="M187.35 112.37C187.35 112.56 187.16 112.94 187.16 112.94C187.16 114.23 188.07 114.6 190.26 114.6C192.08 114.6 194.84 114.22 196.5 113.69C196.5 119.17 196.5 119.17 196.5 119.17C194.31 119.89 191.21 120.27 188.82 120.27C182.77 120.27 179.86 118.61 179.86 113.12C179.86 107.83 182.43 99.3899 191.77 99.3899C197.82 99.3899 199.64 102.15 199.64 105.06C199.61 108.7 196.5 111.99 187.35 112.37ZM191.17 104.46C189.51 104.46 188.6 105.93 188.07 107.56C191.55 107.56 192.65 106.46 192.65 105.56C192.65 105.03 192.12 104.46 191.17 104.46Z" fill="#D82227"/>
<path d="M213.9 106.85C213.52 106.85 212.8 106.66 212.24 106.66C210.42 106.66 209.14 108.32 208.57 111.43C206.91 119.49 206.91 119.49 206.91 119.49C199.57 119.49 199.57 119.49 199.57 119.49C203.24 100.09 203.24 100.09 203.24 100.09C208.91 100.09 208.91 100.09 208.91 100.09C209.1 102.66 209.1 102.66 209.1 102.66C210.76 100.47 212.2 99.3699 214.24 99.3699C215.15 99.3699 215.71 99.5599 215.9 99.5599" fill="#D82227"/>
<path d="M223.43 120.23C217.57 120.23 214.66 117.66 214.66 112.7C214.66 107.03 217.42 99.3499 227.1 99.3499C232.77 99.3499 235.87 101.92 235.87 106.88C235.87 112.71 233.11 120.23 223.43 120.23ZM226.15 105.22C223.24 105.22 222.29 109.99 222.29 111.99C222.29 113.81 223.01 114.18 224.48 114.18C227.24 114.18 228.15 109.6 228.15 107.41C228.16 105.94 227.44 105.22 226.15 105.22Z" fill="#D82227"/>
<path d="M17.4 100.08C22.54 95.1298 22.54 95.1299 22.54 95.1299C20.54 94.0299 17.96 93.4698 14.48 93.4698C12.82 93.4698 12.82 93.4698 12.82 93.4698C4.95001 93.4698 4.94995 93.4698 4.94995 93.4698C-4.86374e-05 119.49 0 119.49 0 119.49C7.87 119.49 7.87 119.49 7.87 119.49C9.87 119.49 9.87 119.49 9.87 119.49C21.4 119.49 25.98 111.43 25.98 102.81C25.98 100.62 25.6 98.7598 24.69 97.3298L17.4 100.08ZM10.47 113.28C8.99997 113.28 9 113.28 9 113.28C11.76 99.5498 11.7599 99.5498 11.7599 99.5498C13.7599 99.5498 13.7599 99.5498 13.7599 99.5498C16.8599 99.5498 17.96 101.55 17.96 104.13C17.96 109.23 15.05 113.28 10.47 113.28Z" fill="#D82227"/>
</svg>