<svg fill="none" xmlns="http://www.w3.org/2000/svg" viewBox="0 0 196 158"><path d="M51.37 126.873c0 3.036-2.492 4.67-5.547 3.425-.965-.389-1.93-1.09-2.653-1.868-4.02-4.203-7.558-8.717-9.728-14.088-.322-.856-.563-1.79-.563-2.646.16-3.736 4.02-5.838 6.593-3.269 4.743 4.825 9.406 9.962 11.577 16.578.241.623.241 1.246.322 1.868zm132.422-86.706c.482.155 1.688.233 2.492.856 3.457 2.88 7.075 5.682 8.764 9.962.402 1.09.643 2.413.562 3.58-.241 4.204-4.18 6.383-7.638 3.97-4.422-3.035-7.959-7.083-9.728-12.064-1.206-3.425.724-6.538 5.548-6.304zm-49.287 82.737c.643.155 1.608.233 2.412.622 3.377 1.713 6.914 9.107 6.19 12.687-.884 4.281-5.788 5.993-9.004 2.958-2.734-2.569-4.824-5.682-5.548-9.418-.723-3.503 2.091-6.849 5.95-6.849zM105.641 62.35c.643-.935 1.206-2.725 2.492-3.348 1.849-.934 3.216.779 4.1 2.18 3.136 4.981 5.869 10.118 6.915 15.878.241 1.167.16 2.49-.242 3.58-.964 2.647-4.1 3.347-5.386.934-3.055-5.915-6.352-11.83-7.879-19.225zM69.787 87.723c-.161 1.479-.563 3.347-2.573 4.125-1.77.623-3.538.156-4.503-1.556-2.653-4.515-5.386-8.951-7.718-13.622-.563-1.011 0-3.113.804-4.125.563-.623 2.653-.623 3.779-.156 3.135 1.324 10.05 11.676 10.21 15.334zm34.087-53.316c.161 4.203-1.126 5.059-4.02 3.58-.804-.389-1.689-.934-2.171-1.712-3.055-4.67-6.11-9.262-8.924-14.01-.965-1.635-1.93-3.97.402-5.37 2.25-1.324 3.94.622 5.226 2.1 2.653 3.192 5.226 6.539 7.477 10.041 1.125 1.868 1.527 4.203 2.01 5.37zm10.771-29.421c.16-4.125 2.17-5.449 5.386-3.892 4.503 2.257 7.558 5.915 8.925 10.663.482 1.79.241 3.736-1.689 4.826-1.769 1.012-3.618 1.245-5.306 0-4.342-2.958-6.352-7.316-7.316-11.597zm20.908 85.15c.562.311 1.768.778 2.572 1.556 2.814 2.725 4.905 5.994 5.628 9.885.402 2.102-.241 4.048-2.17 5.137-2.01 1.168-4.101.701-5.628-.856-3.056-3.035-4.905-6.771-5.066-11.13-.08-2.88 1.608-4.67 4.664-4.592zM84.735 63.05c-.724 1.012-1.206 2.335-2.251 3.113-1.367 1.09-2.573.156-3.699-.934-3.94-4.047-7.236-8.406-9.165-13.776-.563-1.635-1.045-3.425.884-4.515 1.93-1.09 3.618-.233 4.904 1.48 2.493 3.346 5.066 6.615 7.397 10.04.965 1.245 1.287 2.802 1.93 4.592zm-63.593 77.911c.482.156 1.286.312 1.93.623 4.1 2.179 7.557 4.981 9.165 9.496.723 2.101.643 3.891-1.367 5.292-1.93 1.323-3.538.701-5.146-.545-3.457-2.802-6.03-6.304-7.396-10.429-.885-2.569.321-4.437 2.814-4.437zM158.06 47.639c-.402 1.712-.321 3.97-2.894 4.592-2.171.545-4.1.233-5.306-1.868-1.448-2.569-3.056-4.981-4.101-7.706-.965-2.335.161-4.592 2.01-5.526 2.091-1.09 3.618 0 5.065 1.323 3.297 2.88 5.146 5.993 5.226 9.185zm-46.708 88.263c-.483 2.802-1.93 4.981-4.02 5.526-2.653.701-4.583-.233-5.95-3.191-.804-1.79-1.367-3.736-1.688-5.682-.402-2.024 1.125-4.67 2.814-5.37 1.849-.779 5.065 0 6.271 2.023 1.126 2.024 1.688 4.437 2.573 6.694zm12.136-87.719c.804-1.946.402-4.047 2.895-4.67 2.412-.7 4.02.545 4.904 2.491 1.126 2.335 2.171 4.748 3.055 7.239.322.778.161 1.868.081 2.724-.242 1.712-.724 3.347-2.895 3.736-2.171.389-3.939-.234-4.743-2.102-1.367-3.035-2.252-6.227-3.297-9.418zm-24.761 54.484c-.322.467-.804 1.868-1.85 2.568-1.447 1.012-3.054.467-4.18-.856-3.457-3.736-5.789-8.017-6.352-13.076-.24-2.413 1.046-3.347 2.975-2.724 3.699 1.323 9.487 9.34 9.407 14.088zm-33.93 44.054c.402-3.581 1.447-5.76 3.457-6.227 2.17-.467 4.663 1.245 5.789 4.437.723 2.023 1.045 4.125 1.286 6.226.241 2.335-1.286 4.592-3.055 5.137-2.01.623-4.1-.155-5.306-2.724-1.046-2.101-1.528-4.592-2.171-6.849zM157.66 9.344c.563.234 1.448.468 2.252.857 3.859 1.868 6.351 4.903 7.477 8.873.241.934-.081 2.568-.804 3.191-.724.623-2.412.934-3.297.545-4.1-1.557-6.914-4.67-8.683-8.562-1.286-2.568.161-4.904 3.055-4.904zM77.663 124.382c-.563.779-1.045 2.258-1.93 2.569-1.125.389-3.377.156-3.779-.545a144.658 144.658 0 01-6.351-12.687c-.241-.622.643-2.023 1.367-2.568.563-.389 2.09-.389 2.573.078 3.537 3.658 6.431 7.783 8.12 13.153zm96.722-9.495c-.482 2.88-.723 4.748-3.055 5.293-2.09.467-3.698 0-4.904-1.791-1.849-2.724-3.136-5.681-2.493-8.95.644-3.581 3.699-4.671 6.111-1.946 2.09 2.335 3.216 5.448 4.341 7.394zM26.449 73.324c.321.155 1.206.389 1.608.934 2.251 3.113 4.583 6.149 6.432 9.495.563.934.241 2.88-.402 3.659-1.287 1.556-2.895.389-4.1-.545-3.297-2.569-5.066-6.15-6.352-9.963-.724-2.101.482-3.58 2.814-3.58zm151.071 7.083c-.08 2.568-2.412 3.97-4.583 2.568-3.537-2.413-5.386-5.993-5.949-10.04-.241-1.946 1.849-2.88 4.1-2.102 2.975 1.09 6.593 6.46 6.432 9.574zM10.53 117.144c-.805 1.168-1.287 2.569-2.01 2.724-1.046.234-2.814-.077-3.216-.778-1.689-2.724-3.056-5.682-4.262-8.64-.562-1.479-.16-3.191 1.77-3.736 1.607-.545 2.733.467 3.456 1.79 1.367 2.803 2.734 5.682 4.262 8.64zm41.327-69.661c-.16 1.634-.16 2.413-.321 3.19-.644 2.414-2.734 3.036-4.663 1.557-2.412-1.867-3.78-7.471-2.412-10.04 1.125-2.18 3.537-2.568 4.743-.467 1.206 1.946 2.01 4.203 2.653 5.76z" fill="#EDE3DE"/></svg>
