<svg width="228" height="69" viewBox="0 0 228 69" fill="none" xmlns="http://www.w3.org/2000/svg">
<path fill-rule="evenodd" clip-rule="evenodd" d="M221.71 15.29C218 11.57 212.96 9.48 207.7 9.49C202.44 9.48 197.4 11.57 193.69 15.29C189.97 19 187.88 24.04 187.89 29.3C187.89 34.76 190.11 39.73 193.69 43.31C197.4 47.03 202.44 49.12 207.7 49.11C213.16 49.11 218.13 46.89 221.71 43.31C225.43 39.6 227.52 34.56 227.51 29.3C227.52 24.04 225.43 19 221.71 15.29ZM217.17 38.77C214.66 41.29 211.25 42.7 207.7 42.69C204.15 42.7 200.74 41.28 198.23 38.77C195.71 36.26 194.3 32.85 194.31 29.3C194.31 25.59 195.8 22.26 198.23 19.83C200.74 17.31 204.15 15.9 207.7 15.91C211.41 15.91 214.74 17.4 217.17 19.83C219.69 22.34 221.1 25.75 221.09 29.3C221.09 33.01 219.6 36.34 217.17 38.77ZM193.35 7.83C193.75 7.58 193.71 7.23 193.58 6.98L190.77 2.57C190.54 2.19 190.2 2.27 189.97 2.38C185.78 4.96 175.44 13.88 175.44 29.31V47.51C175.47 47.8 175.63 48.11 176.08 48.12H181.23C181.67 48.11 181.83 47.81 181.86 47.53V29.31C181.86 16.01 191.23 9.17 193.35 7.83ZM164.73 15.29C161.02 11.57 155.98 9.48 150.72 9.49C145.26 9.49 140.29 11.71 136.71 15.29C132.99 19 130.9 24.04 130.91 29.3C130.9 34.56 132.99 39.6 136.71 43.31C140.42 47.03 145.46 49.12 150.72 49.11C156.18 49.11 161.15 46.89 164.73 43.31C168.45 39.6 170.54 34.56 170.53 29.3C170.53 23.84 168.31 18.87 164.73 15.29ZM160.19 38.77C157.68 41.29 154.27 42.7 150.72 42.69C147.17 42.7 143.76 41.29 141.25 38.77C138.73 36.26 137.32 32.85 137.33 29.3C137.32 25.75 138.73 22.34 141.25 19.83C143.76 17.31 147.17 15.9 150.72 15.91C154.43 15.91 157.76 17.4 160.19 19.83C162.71 22.34 164.12 25.75 164.11 29.3C164.12 33.01 162.62 36.34 160.19 38.77ZM120.98 15.29C117.27 11.57 112.23 9.48 106.97 9.49C101.72 9.49 96.67 11.57 92.96 15.29C89.24 19 87.15 24.04 87.16 29.3C87.16 34.76 89.39 39.73 92.96 43.31C96.67 47.03 101.71 49.12 106.97 49.11C112.09 49.11 116.78 47.15 120.3 43.96V45.82C120.3 49.53 118.81 52.86 116.38 55.29C113.87 57.81 110.46 59.22 106.91 59.21C103.56 59.22 100.33 57.96 97.86 55.68C97.66 55.53 97.37 55.43 97.09 55.63L93.32 59.41C93.08 59.69 93.15 59.98 93.3 60.19C96.97 63.68 101.85 65.63 106.92 65.63C112.17 65.63 117.22 63.55 120.93 59.83C124.65 56.12 126.74 51.08 126.73 45.82L126.8 29.3C126.79 23.84 124.57 18.87 120.98 15.29ZM120.37 29.3L120.31 30.67C120 33.74 118.64 36.6 116.46 38.78C113.95 41.3 110.54 42.71 106.99 42.7C103.44 42.71 100.03 41.29 97.52 38.78C95 36.27 93.59 32.86 93.6 29.31C93.6 25.6 95.09 22.27 97.52 19.84C100.03 17.32 103.44 15.91 106.99 15.92C110.7 15.92 114.03 17.41 116.46 19.84C118.97 22.34 120.38 25.75 120.37 29.3ZM77.34 15.29C73.63 11.57 68.59 9.48 63.33 9.49C57.87 9.49 52.9 11.71 49.32 15.29C45.6 19 43.51 24.04 43.52 29.3C43.51 34.56 45.6 39.6 49.32 43.31C53.03 47.03 58.07 49.12 63.33 49.11C68.79 49.11 73.76 46.89 77.34 43.31C81.06 39.6 83.15 34.56 83.14 29.3C83.14 23.84 80.92 18.87 77.34 15.29ZM72.8 38.77C70.29 41.29 66.88 42.7 63.33 42.69C59.78 42.7 56.37 41.28 53.86 38.77C51.34 36.26 49.93 32.85 49.94 29.3C49.94 25.59 51.43 22.26 53.86 19.83C56.37 17.31 59.78 15.9 63.33 15.91C67.04 15.91 70.37 17.4 72.8 19.83C75.32 22.34 76.73 25.75 76.72 29.3C76.72 33.01 75.23 36.34 72.8 38.77ZM33.82 15.29C30.11 11.57 25.07 9.48 19.81 9.49C14.56 9.49 9.51 11.57 5.8 15.29C2.08 19 0 24.04 0 29.3C0 34.76 2.23 39.73 5.8 43.31C9.51 47.03 14.55 49.12 19.81 49.11C24.93 49.11 29.62 47.15 33.14 43.96V45.82C33.14 49.53 31.65 52.86 29.22 55.29C26.71 57.81 23.3 59.22 19.75 59.21C16.4 59.22 13.17 57.96 10.7 55.68C10.5 55.53 10.21 55.43 9.93 55.63L6.15 59.41C5.91 59.69 5.98 59.98 6.13 60.19C9.8 63.68 14.68 65.63 19.75 65.63C25 65.63 30.05 63.55 33.76 59.83C37.48 56.12 39.57 51.08 39.56 45.82L39.63 29.3C39.62 23.84 37.4 18.87 33.82 15.29ZM33.2 29.3L33.14 30.67C32.83 33.74 31.47 36.6 29.29 38.78C26.78 41.3 23.37 42.71 19.82 42.7C16.27 42.71 12.86 41.29 10.35 38.78C7.83 36.27 6.42 32.86 6.43 29.31C6.43 25.6 7.92 22.27 10.35 19.84C12.86 17.32 16.27 15.91 19.82 15.92C23.53 15.92 26.86 17.41 29.29 19.84C31.8 22.34 33.21 25.75 33.2 29.3Z" fill="#323237"/>
</svg>