<svg width="255" height="135" viewBox="0 0 255 135" fill="none" xmlns="http://www.w3.org/2000/svg">
<path d="M10.81 23.9602H29.4C26.09 41.7102 22.78 59.4602 19.47 77.2102C12.98 77.2102 6.49 77.2102 0 77.2102L10.81 23.9602Z" fill="#EA1D2C"/>
<path d="M12.5 16.3601C18.84 16.3601 25.18 16.3601 31.52 16.3601C32.29 11.5001 33.07 6.64015 33.84 1.78015C27.64 1.64015 21.44 1.50011 15.25 1.36011C14.33 6.35011 13.42 11.3501 12.5 16.3601Z" fill="#EA1D2C"/>
<path d="M83.36 12.3001C84.25 8.86015 85.14 5.4202 86.03 1.9802C82.94 1.0102 78.55 0.0101625 73.24 0.00016252C65.98 -0.0198375 60.24 1.81015 56.75 3.24015C54.4 4.49015 49.58 7.4602 46 13.2902C43.41 17.5002 42.51 21.5002 42.16 23.9602H34.89L32.98 34.1002H39.54L27.29 91.5702C33.63 91.5702 39.97 91.5702 46.31 91.5702C50.11 72.2702 53.92 52.9702 57.72 33.6802C62.72 33.8102 67.71 33.9402 72.71 34.0702C73.35 30.7002 73.99 27.3302 74.63 23.9602C69.98 23.6802 65.33 23.4001 60.68 23.1101C60.81 21.5501 61.47 15.4202 65.99 12.7102C67.97 11.5302 69.99 11.4102 73.15 11.2702C77.5 11.0902 81.06 11.7301 83.36 12.3001Z" fill="#EA1D2C"/>
<path d="M231.82 23.9602C233.44 16.3002 235.06 8.64021 236.68 0.970215C242.73 1.02021 248.79 1.07019 254.84 1.13019C249.98 26.4902 245.12 51.8502 240.26 77.2002H222.09C222.3 73.6802 222.51 70.1602 222.72 66.6402C213.73 76.5202 202.67 80.4902 195.08 76.9002C191.43 75.1702 189.62 72.1902 189.13 71.3602C181.91 59.1302 195.99 40.5802 197.34 38.8402C200.15 35.2202 207.97 25.1702 221.12 23.4502C225.57 22.8702 229.32 23.4002 231.82 23.9602Z" fill="#EA1D2C"/>
<path d="M149 102.14L137.17 92.6301H175.62L166.75 133.2L161.05 116.72C161.05 116.72 145.41 128.97 133.79 131.09C122.17 133.2 117.94 137.64 88.7899 129.61C88.7899 129.61 64.0699 120.1 59.6299 92.6301C59.6299 92.6301 70.4099 111.22 86.0399 115.87C101.67 120.52 113.51 123.48 135.48 112.07C135.47 112.07 148.79 105.52 149 102.14Z" fill="#EA1D2C"/>
<path d="M117.79 64.9803C108.12 76.1303 91.2896 80.8403 78.2196 75.5203C75.0796 74.2403 70.3897 72.3302 67.8697 67.7002C60.8497 54.8302 74.6796 28.5603 95.1297 23.3303C103.81 21.1103 118.05 21.5602 124.53 31.0602C131.89 41.8702 124.39 57.3603 117.79 64.9803Z" fill="#EA1D2C"/>
<path d="M178.51 65.6002C168.84 76.7502 152.01 81.4601 138.94 76.1401C135.8 74.8601 131.11 72.9501 128.59 68.3201C121.57 55.4501 135.4 29.1801 155.85 23.9501C164.53 21.7301 178.77 22.1801 185.25 31.6801C192.62 42.4901 185.12 57.9802 178.51 65.6002Z" fill="#EA1D2C"/>
</svg>