<svg width="331" height="74" viewBox="0 0 331 74" fill="none" xmlns="http://www.w3.org/2000/svg">
<path d="M313.27 0C303.69 0 295.97 7.72 295.97 17.3C295.97 26.88 303.69 34.6 313.27 34.6C322.85 34.6 330.57 26.88 330.57 17.3C330.57 7.41 322.85 0 313.27 0Z" fill="url(#paint0_linear)"/>
<path d="M314.2 39.54C313.58 41.7 313.27 43.56 312.66 44.79L312.35 45.41C312.04 46.95 310.81 47.88 309.26 47.88H308.33C307.71 47.88 307.09 47.57 306.48 46.95C306.17 46.33 305.86 45.71 305.86 45.1L306.79 38.92C306.79 38.61 307.1 37.99 307.41 37.68C298.45 35.52 291.96 27.48 291.96 17.91C291.96 16.37 292.27 15.13 292.27 13.58H266.94C265.4 13.58 264.16 12.65 263.85 11.11L262.61 5.85999C261.99 4.00999 260.45 2.45999 258.28 2.45999H250.87C249.33 2.45999 248.4 3.69999 248.4 4.92999C248.4 6.46999 249.64 7.39999 250.87 7.39999H254.89C256.43 7.39999 257.67 8.33 257.98 9.87L267.87 50.03C268.49 51.88 270.03 53.43 272.2 53.43H312.67C314.83 53.43 316.38 52.19 317 50.03L320.4 36.44C318.24 37.37 316.07 37.68 313.91 37.98C314.51 38.93 314.51 39.23 314.2 39.54ZM268.79 28.42C268.48 26.88 267.86 25.33 267.55 24.09L267.24 22.85C266.93 22.23 267.24 21.61 267.55 21C267.86 20.38 268.79 20.07 269.4 20.07H272.18C273.72 20.07 274.96 21 274.96 22.54L275.89 28.1C275.89 28.72 275.89 29.34 275.27 29.95C274.96 30.57 274.03 30.88 273.42 30.88H271.88C270.33 30.58 269.09 29.66 268.79 28.42ZM278.36 46.96C278.05 47.58 277.12 47.89 276.51 47.89H276.2C274.66 47.89 273.42 46.96 273.11 45.42L272.8 44.8C272.49 43.26 271.87 41.4 271.26 39.24C270.95 38.62 271.26 38 271.57 37.39C271.88 36.77 272.81 36.46 273.42 36.46H274.96C276.5 36.46 277.74 37.39 278.05 38.93L278.98 45.11C278.98 45.72 278.98 46.65 278.36 46.96ZM289.79 45.72C289.79 46.96 288.86 47.88 287.63 47.88C286.4 47.88 285.16 46.95 285.16 45.72L284.23 39.23C284.23 38.61 284.23 37.99 284.85 37.38C285.16 36.76 286.09 36.45 286.7 36.45H287.63C289.17 36.45 290.41 37.69 290.41 39.23V45.72H289.79ZM289.79 28.11C289.79 29.65 288.55 30.89 287.01 30.89H284.85C283.31 30.89 282.07 29.96 281.76 28.42L281.14 22.55C281.14 21.93 281.14 21.31 281.76 20.7C282.38 20.08 283 19.77 283.61 19.77H287.32C288.86 19.77 289.79 21.01 289.79 22.55V28.11V28.11ZM301.53 39.23L300.6 45.72C300.29 46.96 299.36 47.88 298.13 47.88C296.89 47.88 295.97 46.95 295.97 45.72V39.23C295.97 37.69 297.21 36.45 298.75 36.45H299.68C300.3 36.45 300.92 36.76 301.53 37.38C301.53 38 301.53 38.62 301.53 39.23Z" fill="url(#paint1_linear)"/>
<path d="M313.27 2.47L317.6 11.12L327.48 12.67L320.38 19.46L321.92 29.04L313.27 24.71L304.62 29.04L306.17 19.46L299.37 12.67L308.95 11.12L313.27 2.47Z" fill="white"/>
<path d="M274.96 73.21C279.052 73.21 282.37 69.7537 282.37 65.49C282.37 61.2264 279.052 57.77 274.96 57.77C270.867 57.77 267.55 61.2264 267.55 65.49C267.55 69.7537 270.867 73.21 274.96 73.21Z" fill="url(#paint2_linear)"/>
<path d="M310.8 73.21C314.892 73.21 318.21 69.7537 318.21 65.49C318.21 61.2264 314.892 57.77 310.8 57.77C306.707 57.77 303.39 61.2264 303.39 65.49C303.39 69.7537 306.707 73.21 310.8 73.21Z" fill="url(#paint3_linear)"/>
<path d="M84.0399 58.08C80.6399 60.55 75.3898 61.48 68.2798 61.48H58.0799C56.5399 61.48 55.2999 61.48 53.4499 61.48C51.9099 61.48 50.3599 61.17 48.8199 60.86C47.2799 60.55 45.7299 59.93 44.4899 59.62C42.9499 59 41.7098 58.08 40.7798 57.15C39.8498 56.22 38.9299 54.68 38.3099 53.13C37.6899 51.59 37.3799 49.73 37.3799 47.26V12.04H46.6498V46.95C46.6498 50.66 50.0498 52.51 57.1498 52.51H69.8199C76.6199 52.51 80.0198 50.66 80.0198 46.95V12.04H89.2899V47.57C88.9799 52.21 87.4399 55.92 84.0399 58.08Z" fill="#0F0E0E"/>
<path d="M159.11 62.1V29.66L139.03 59.32C138.41 60.25 137.49 61.17 136.56 61.79C135.63 62.41 134.71 62.72 133.47 62.72C131.31 62.72 129.45 61.79 127.91 59.63L107.83 29.35V62.1H98.5596V17.3C98.5596 15.45 99.1795 14.21 100.1 13.28C101.03 12.35 102.26 11.74 103.81 11.74C105.97 11.74 107.83 12.67 109.06 14.21L134.08 50.05L158.8 14.52C160.04 12.67 161.58 11.74 163.74 11.74C165.28 11.74 166.52 12.36 167.45 13.28C168.38 14.2 168.99 15.75 168.99 17.61V61.79H159.1V62.1H159.11Z" fill="#0F0E0E"/>
<path d="M177.65 61.79V12.05H186.92V61.79H177.65Z" fill="#0F0E0E"/>
<path d="M249.94 62.1L242.22 48.51H213.18L205.77 62.1H194.65L222.45 15.45C223.69 13.29 225.54 12.05 227.7 12.05C229.86 12.05 231.72 13.29 232.95 15.45L260.14 62.1H249.94ZM227.7 24.4L218.74 39.23H236.66L227.7 24.4Z" fill="#0F0E0E"/>
<path d="M28.12 39.54C28.12 54.68 22.56 61.17 12.67 63.33C3.08998 65.18 0 65.18 0 65.18V54.98C3.71 54.67 9.57997 54.05 13.28 52.82C16.68 51.58 19.15 48.19 19.15 39.54L19.46 21.31V12.04H28.73L28.12 39.54Z" fill="#0F0E0E"/>
<defs>
<linearGradient id="paint0_linear" x1="296.109" y1="17.2992" x2="330.573" y2="17.2992" gradientUnits="userSpaceOnUse">
<stop stop-color="#EB712A"/>
<stop offset="0.2311" stop-color="#EF8528"/>
<stop offset="0.4715" stop-color="#F29426"/>
<stop offset="0.6242" stop-color="#F39A24"/>
</linearGradient>
<linearGradient id="paint1_linear" x1="248.653" y1="27.9577" x2="320.885" y2="27.9577" gradientUnits="userSpaceOnUse">
<stop stop-color="#343434"/>
<stop offset="0.5455" stop-color="#696968"/>
<stop offset="1" stop-color="#696968"/>
</linearGradient>
<linearGradient id="paint2_linear" x1="267.567" y1="65.4942" x2="282.435" y2="65.4942" gradientUnits="userSpaceOnUse">
<stop stop-color="#343434"/>
<stop offset="0.5455" stop-color="#696968"/>
<stop offset="1" stop-color="#696968"/>
</linearGradient>
<linearGradient id="paint3_linear" x1="303.286" y1="65.4942" x2="318.146" y2="65.4942" gradientUnits="userSpaceOnUse">
<stop stop-color="#343434"/>
<stop offset="0.5455" stop-color="#696968"/>
<stop offset="1" stop-color="#696968"/>
</linearGradient>
</defs>
</svg>