<svg width="283" height="64" viewBox="0 0 283 64" fill="none" xmlns="http://www.w3.org/2000/svg">
<path d="M49.7902 0H35.8602C35.8602 11.43 30.6102 21.86 21.4902 28.73L15.9902 32.85L37.3502 61.96H54.9002L35.2202 35.16C44.5402 25.93 49.7902 13.43 49.7902 0Z" fill="black"/>
<path d="M14.24 0H0V61.97H14.24V0Z" fill="black"/>
<path d="M72.4603 0H59.0303V61.97H72.4603V0Z" fill="black"/>
<path d="M190.27 17.9299C185.15 17.9299 180.28 19.4899 177.03 23.9299V19.1199H164.29V61.97H177.22V39.48C177.22 32.98 181.59 29.7999 186.84 29.7999C192.46 29.7999 195.71 33.1699 195.71 39.4199V62.03H208.52V34.73C208.51 24.74 200.58 17.9299 190.27 17.9299Z" fill="black"/>
<path d="M113.06 19.1199V21.8699C109.44 19.3699 105.06 17.9299 100.32 17.9299C87.8299 17.9299 77.71 28.05 77.71 40.54C77.71 53.03 87.8299 63.15 100.32 63.15C105.07 63.15 109.44 61.71 113.06 59.21V61.96H125.87V19.1099H113.06V19.1199ZM101.38 51.54C94.9499 51.54 89.7599 46.6099 89.7599 40.5499C89.7599 34.4899 94.9399 29.5599 101.38 29.5599C107.81 29.5599 113 34.4899 113 40.5499C113 46.6099 107.82 51.54 101.38 51.54Z" fill="black"/>
<path d="M145.73 24.68V19.12H132.61V61.97H145.79V41.98C145.79 35.23 153.1 31.61 158.16 31.61C158.22 31.61 158.28 31.61 158.28 31.61V19.12C153.11 19.12 148.3 21.37 145.73 24.68Z" fill="black"/>
<path d="M248.37 19.1199V21.8699C244.75 19.3699 240.37 17.9299 235.63 17.9299C223.14 17.9299 213.02 28.05 213.02 40.54C213.02 53.03 223.14 63.15 235.63 63.15C240.38 63.15 244.75 61.71 248.37 59.21V61.96H261.18V19.1099H248.37V19.1199ZM236.69 51.54C230.26 51.54 225.07 46.6099 225.07 40.5499C225.07 34.4899 230.25 29.5599 236.69 29.5599C243.12 29.5599 248.31 34.4899 248.31 40.5499C248.37 46.5999 243.12 51.54 236.69 51.54Z" fill="black"/>
<path d="M271.1 20.37C271.1 19.75 270.66 19.37 269.98 19.37H268.79V22.62H269.35V21.43H269.97L270.47 22.62H271.09L270.53 21.31C270.92 21.12 271.1 20.8 271.1 20.37ZM269.98 20.87H269.36V19.87H269.98C270.35 19.87 270.54 20.06 270.54 20.37C270.54 20.68 270.42 20.87 269.98 20.87Z" fill="black"/>
<path d="M269.79 17.99C268.1 17.99 266.73 19.36 266.73 21.05C266.79 22.74 268.1 24.11 269.79 24.11C271.48 24.11 272.85 22.74 272.85 21.05C272.85 19.37 271.48 17.99 269.79 17.99ZM269.79 23.55C268.42 23.55 267.35 22.43 267.35 21.05C267.35 19.68 268.47 18.55 269.79 18.55C271.16 18.55 272.23 19.67 272.23 21.05C272.23 22.43 271.1 23.55 269.79 23.55Z" fill="black"/>
<path d="M274.85 46.79C270.41 46.79 266.79 50.41 266.79 54.85C266.79 59.29 270.41 62.91 274.85 62.91C279.29 62.91 282.91 59.29 282.91 54.85C282.91 50.35 279.29 46.79 274.85 46.79Z" fill="black"/>
</svg>