<svg width="274" height="76" viewBox="0 0 274 76" fill="none" xmlns="http://www.w3.org/2000/svg">
<path d="M63.04 50.9599C64.55 42.1499 66.06 33.3399 67.57 24.5299C69.46 24.5299 71.35 24.5299 73.23 24.5299C72.03 31.6399 70.84 38.7499 69.64 45.8599C74.11 45.7999 78.57 45.7299 83.04 45.6699C82.16 47.4299 81.28 49.1899 80.4 50.9499C74.62 50.9599 68.83 50.9599 63.04 50.9599Z" fill="#FF671D"/>
<path d="M83.4297 50.5799H89.4697L99.6597 30.5699H100.04C100.42 33.3399 100.8 36.1099 101.17 38.8799C99.7897 38.8799 98.3997 38.8799 97.0197 38.8799C96.3897 40.3899 95.7597 41.8999 95.1297 43.4099C97.3897 43.4099 99.6597 43.4099 101.93 43.4099L103.06 50.5799C105.07 50.5799 107.09 50.5799 109.1 50.5799C107.59 41.8999 106.08 33.2199 104.57 24.5299C102.05 24.5299 99.5397 24.5299 97.0197 24.5299C92.4897 33.2199 87.9597 41.8999 83.4297 50.5799Z" fill="#FF671D"/>
<path d="M111.74 50.77C113.25 41.96 114.76 33.15 116.27 24.34C118.16 24.34 120.05 24.34 121.93 24.34C120.73 31.45 119.54 38.56 118.34 45.67C122.81 45.61 127.27 45.54 131.74 45.48C130.86 47.24 129.98 49 129.1 50.76C123.32 50.77 117.53 50.77 111.74 50.77Z" fill="#FF671D"/>
<path d="M132.13 50.4H138.17L148.36 30.39H148.74C149.12 33.16 149.5 35.93 149.87 38.69C148.49 38.69 147.1 38.69 145.72 38.69C145.09 40.2 144.46 41.71 143.83 43.22C146.09 43.22 148.36 43.22 150.62 43.22L151.75 50.39C153.76 50.39 155.78 50.39 157.79 50.39C156.28 41.71 154.77 33.02 153.26 24.34C150.74 24.34 148.23 24.34 145.71 24.34C141.18 33.03 136.65 41.71 132.13 50.4Z" fill="#FF671D"/>
<path d="M160.22 50.7699H166.24L169.12 33.2199H169.88L171.16 50.7699H178.24L185.35 33.5999H186.11L183.11 50.7699H189.18L193.66 24.5399H183.84L176.29 43.0299H175.54L174.4 24.5399H164.59L160.22 50.7699Z" fill="#FFA400"/>
<path d="M219.71 27.93C217.2 25 213.84 24.39 212.54 24.16C207.02 23.16 202.76 25.9 201.97 26.42C196.74 29.92 195.74 35.52 195.55 36.8C195.33 38.32 194.44 44.29 198.57 48.31C202.9 52.54 209.27 51.24 210.65 50.95C214.23 50.22 216.52 48.39 217.07 47.93C222.28 43.6 222.36 37.15 222.36 36.23C222.34 34.57 222.32 30.98 219.71 27.93ZM216.31 36.62C216.29 37.22 215.99 43.65 211.03 46.06C210.44 46.34 207.58 47.73 204.99 46.44C201.03 44.47 201.55 38.18 201.59 37.76C201.94 34.11 204.31 29.62 208.38 28.7C208.79 28.61 211.76 27.99 214.04 29.83C216.45 31.77 216.36 35.08 216.31 36.62Z" fill="#FFA400"/>
<path d="M225.739 24.5399H232.159L234.799 45.2999H235.559L245.749 24.5399H251.789L238.049 50.7699L230.269 50.5799L225.739 24.5399Z" fill="#FFA400"/>
<path d="M254.429 24.5399H273.309L272.549 29.0699C268.149 29.0699 263.739 29.0699 259.339 29.0699C258.959 31.2099 258.579 33.3499 258.209 35.4899C262.359 35.4899 266.519 35.4899 270.669 35.4899C270.419 36.9999 270.169 38.5099 269.909 40.0199H257.449C257.069 42.0299 256.699 44.0499 256.319 46.0599C260.849 46.0599 265.379 46.0599 269.909 46.0599L269.179 50.7799H249.609L254.429 24.5399Z" fill="#FFA400"/>
<path d="M43.03 24.16C42.73 23.05 41.79 19.06 44.01 15.75C45.86 12.98 48.95 12.16 52.09 11.32C55.03 10.54 57.57 10.48 59.26 10.56C64.93 7.05 70.59 3.52 76.25 0L60.02 14.35C59.08 17.02 57.68 20.95 55.87 25.67C53.07 32.97 51.68 36.62 50.59 38.13C48.36 41.22 43.54 44.13 33.98 49.83C33.98 49.83 29.45 52.85 24.54 61.15C19.63 69.45 17.36 73.24 14.35 75.5L30.2 39.26C30.2 39.26 25.67 37 19.25 30.2L41.52 37.37L39.63 33.97L15.1 26.42L12.83 23.78L38.5 32.09L36.61 29.07L9.44 20.01L7.18 17.37L35.49 26.81L33.23 23.41L3.78 13.97L0 9.81C14.35 14.6 28.69 19.38 43.03 24.16Z" fill="#FF671D"/>
</svg>