<svg width="337" height="91" viewBox="0 0 337 91" fill="none" xmlns="http://www.w3.org/2000/svg">
<path d="M46.24 85.03C41.18 85.92 36.03 86.18 30.71 86.89L14.47 39.32V88.93C9.40997 89.46 4.8 90.17 0 90.88V0H13.49L31.95 51.57V0H46.24V85.03ZM74.2 33.29C79.7 33.29 88.13 33.02 93.19 33.02V47.22C86.89 47.22 79.52 47.22 74.2 47.49V68.61C82.54 68.08 90.89 67.37 99.32 67.1V80.77L60 83.88V0.0100098H99.32V14.21H74.2V33.29ZM152.13 14.21H137.39V79.53C132.6 79.53 127.8 79.53 123.19 79.71V14.21H108.46V0.0100098H152.13V14.21ZM175.2 32.31H194.64V46.51H175.2V78.73H161.26V0.0100098H200.93V14.21H175.19V32.31H175.2ZM224.02 66.3C232.1 66.48 240.26 67.1 248.16 67.54V81.56C235.47 80.76 222.78 79.96 209.82 79.7V0H224.02V66.3ZM260.14 82.55C264.67 82.82 269.46 83.08 274.07 83.61V0H260.14V82.55ZM336.29 0.0100098L318.27 43.23L336.29 90.89C330.96 90.18 325.64 89.2 320.31 88.32L310.11 62.04L299.73 86.18C294.58 85.29 289.61 85.03 284.46 84.32L302.74 42.69L286.23 0H301.49L310.81 23.87L320.75 0L336.29 0.0100098Z" fill="#D81F26"/>
</svg>