<svg width="226" height="73" viewBox="0 0 226 73" fill="none" xmlns="http://www.w3.org/2000/svg">
<path d="M77.6885 40.664C77.6885 47.054 77.6885 53.404 77.6885 59.794C77.6385 68.104 73.2985 72.394 64.9985 72.434C61.3585 72.434 57.6685 72.484 54.0385 72.434C46.6685 72.344 41.2585 67.444 40.8785 60.074C40.5985 54.804 40.5485 49.484 40.8285 44.214C41.1985 36.654 46.9885 31.334 54.6385 31.244C56.6485 31.194 58.6985 31.244 60.7085 31.244C62.6685 31.194 63.4185 30.074 63.3685 28.214C63.3685 26.344 62.5285 25.504 60.6585 25.604C58.5585 25.654 56.4585 25.654 54.3585 25.604C49.2285 25.514 46.3785 22.714 46.4285 17.674C46.4285 15.624 45.4985 12.864 46.8485 11.654C48.0185 10.624 50.6785 11.284 52.6785 11.284C57.9085 11.234 63.0785 11.284 68.3085 11.284C73.8585 11.284 77.6385 15.064 77.6885 20.664C77.7385 27.274 77.6885 33.994 77.6885 40.664ZM63.4185 51.254C63.4185 50.464 63.4185 49.714 63.4185 48.924C63.4185 44.164 63.4185 44.164 58.6585 44.354C56.2785 44.444 54.9685 45.664 54.9285 48.134C54.8785 50.094 54.8785 52.004 54.9285 53.964C54.9785 57.324 56.4685 58.214 61.3185 58.354C64.9085 58.444 63.0885 55.924 63.4185 54.524C63.5985 53.494 63.3685 52.324 63.4185 51.254ZM119.218 35.574C119.218 42.714 119.308 49.894 119.168 57.034C119.078 62.544 117.768 67.534 112.448 70.474C110.298 71.644 107.968 72.294 105.538 72.344C100.168 72.434 94.8085 72.344 89.4385 72.434C88.1285 72.434 87.8485 71.9641 87.8985 70.8041C87.9885 68.8441 87.8485 66.934 87.9485 64.974C88.0385 61.244 90.8885 58.394 94.6185 58.254C97.0485 58.164 99.4285 58.204 101.848 58.254C103.808 58.254 104.878 57.4641 104.878 55.3641C104.878 53.2141 103.848 52.474 101.888 52.424C98.6185 52.334 95.3585 52.7941 92.1385 51.8641C86.5885 50.2341 82.5285 45.614 82.3885 39.874C82.1085 30.774 82.2985 21.674 82.2485 12.584C82.2485 11.554 82.5785 11.234 83.5985 11.274C87.4285 11.324 91.2085 11.364 95.0285 11.274C96.7085 11.224 96.4785 12.164 96.4785 13.184C96.4785 20.044 96.4785 26.854 96.4785 33.714C96.4785 36.704 97.8785 38.284 100.488 38.384C103.568 38.474 104.918 37.214 104.918 34.094C104.918 27.184 104.968 20.234 104.868 13.334C104.868 11.704 105.288 11.234 106.918 11.284C110.328 11.424 113.778 11.474 117.178 11.284C119.048 11.194 119.328 11.894 119.278 13.524C119.168 20.834 119.218 28.204 119.218 35.574ZM0.328468 46.164C0.328468 38.554 0.328468 30.904 0.328468 23.304C0.328468 15.834 4.89847 11.174 12.4085 11.264C17.3085 11.314 22.2085 10.704 27.0585 11.634C33.2685 12.844 37.1785 17.654 37.2285 24.044C37.2785 30.814 37.2285 37.574 37.2285 44.344C37.2285 52.834 32.2385 58.014 23.7485 58.244C21.1785 58.334 18.6185 58.294 16.0485 58.244C14.8785 58.194 14.3685 58.5741 14.4185 59.8341C14.5085 61.7041 14.4685 63.564 14.4185 65.434C14.3285 69.444 11.4785 72.344 7.50847 72.384C5.17847 72.434 2.23847 73.364 0.738469 72.014C-0.661531 70.754 0.368469 67.764 0.318469 65.524C0.288469 59.094 0.328468 52.604 0.328468 46.164ZM14.4185 34.734C14.4185 36.224 14.4185 37.674 14.4185 39.164C14.4185 44.434 14.4185 44.434 19.6885 43.974C21.9785 43.784 23.0485 42.664 23.0985 40.384C23.1485 37.774 23.0085 35.114 23.1485 32.494C23.4285 24.934 22.0285 25.684 15.8685 25.634C14.7485 25.634 14.3785 25.9641 14.3785 27.0841C14.4685 29.6041 14.4185 32.174 14.4185 34.734Z" fill="#06306F"/>
<path d="M176.608 15.3741C177.538 14.6241 178.008 14.2541 178.478 13.8841C184.968 8.37407 193.268 8.98407 198.818 15.5141C199.378 16.1641 199.658 16.2141 200.218 15.6541C200.588 15.2341 201.008 14.9041 201.388 14.4841C205.728 10.2341 211.468 8.97407 216.828 11.3541C222.478 13.8741 225.508 18.3041 225.558 24.5141C225.648 37.9041 225.608 51.2441 225.608 64.6441C225.608 69.4041 222.668 72.3941 217.958 72.3941C216.088 72.3941 214.228 72.2541 212.358 72.4441C210.448 72.6341 209.888 72.0241 209.888 70.0141C209.978 56.9541 209.938 43.8841 209.938 30.8241C209.938 30.2641 209.938 29.7541 209.938 29.1941C209.888 26.1641 208.678 24.9041 205.788 24.7641C203.178 24.6241 201.358 26.2141 201.078 28.8741C201.028 29.4841 201.078 30.1341 201.078 30.7441C201.078 42.0341 201.078 53.2841 201.078 64.5741C201.078 69.5241 198.228 72.4141 193.288 72.3641C190.768 72.3141 187.358 73.4841 185.918 71.8541C184.658 70.4541 185.498 67.1441 185.498 64.6641C185.498 53.0941 185.498 41.4741 185.498 29.9041C185.498 25.7941 182.838 23.6941 179.388 25.0941C177.238 25.9841 176.538 27.7041 176.538 29.9441C176.588 40.7641 176.538 51.5441 176.538 62.3741C176.538 63.2141 176.538 64.1041 176.538 64.9441C176.398 69.4741 173.508 72.3141 169.028 72.3641C167.158 72.4141 165.298 72.2241 163.428 72.4141C161.418 72.6041 160.818 72.0441 160.858 69.8941C160.948 51.5541 160.908 33.2241 160.908 14.8341C160.908 14.0441 160.958 13.2941 160.908 12.5041C160.818 11.4741 161.238 11.1541 162.258 11.1541C166.548 11.2041 170.798 11.2041 175.088 11.1541C176.158 11.1541 176.678 11.4341 176.578 12.6041C176.468 13.4141 176.558 14.1641 176.608 15.3741Z" fill="#02B9EF"/>
<path d="M132.418 46.264C132.418 40.054 132.368 33.804 132.468 27.604C132.468 26.154 132.138 25.554 130.558 25.594C128.458 25.684 125.658 26.294 124.488 25.264C123.038 23.914 124.158 21.014 123.978 18.774C123.978 18.634 123.978 18.444 123.978 18.304C123.978 16.114 123.278 13.544 124.208 11.914C125.138 10.284 127.988 11.304 129.998 10.794C133.968 9.76401 136.948 7.48401 139.378 4.30401C141.058 2.15401 143.158 0.61401 145.868 0.10401C147.318 -0.17599 148.198 0.0140144 148.108 1.87401C147.968 4.48401 148.108 7.14401 148.058 9.80401C148.008 10.924 148.428 11.294 149.548 11.254C151.418 11.204 153.278 11.304 155.148 11.204C156.268 11.154 156.638 11.574 156.598 12.694C156.548 16.524 156.548 20.304 156.598 24.124C156.598 25.194 156.318 25.754 155.148 25.614C154.918 25.564 154.678 25.614 154.448 25.614C152.398 25.804 149.548 24.684 148.478 26.084C147.448 27.394 148.108 30.094 148.108 32.194C148.108 44.884 148.058 57.534 148.158 70.224C148.158 71.994 147.688 72.554 145.918 72.414C144.238 72.274 142.508 72.414 140.788 72.364C135.748 72.174 132.438 68.774 132.438 63.734C132.418 57.924 132.418 52.094 132.418 46.264Z" fill="#02B9EF"/>
</svg>