<svg width="337" height="55" viewBox="0 0 337 55" fill="none" xmlns="http://www.w3.org/2000/svg">
<path d="M25.9 20.1084L38.39 17.1484C35.92 7.94843 28.73 1.31843 20.49 0.518428C19.87 0.458428 9.18001 -0.401572 3.88 7.77843C0.830005 12.4884 0.359998 18.9684 3.06 23.7184C5.17 27.4284 8.72999 29.2584 9.79999 29.7984C14.68 32.2984 17.69 30.8384 21.63 34.0684C22.52 34.7984 25.05 36.8684 24.59 38.9984C24.12 41.1584 20.89 41.8984 20.65 41.9584C17.8 42.5784 14.68 41.1284 13.09 38.6684C11.88 36.7984 11.89 34.8484 11.94 34.0684C7.96 34.8384 3.98 35.5984 0 36.3684C0 39.0884 0.399968 45.5984 5.02997 50.0084C13.7 58.2784 31.9199 54.1584 36.7599 44.3384C38.4499 40.9184 38.7899 36.2384 37.0699 32.4284C34.7699 27.3384 29.26 24.8184 25.4 23.0584C19.36 20.2984 15.06 20.3084 14.55 17.7984C14.24 16.2384 15.6 14.7084 16.47 14.0384C18.59 12.4284 21.8399 12.8584 23.8199 14.5984C26.1599 16.6384 25.93 19.7484 25.9 20.1084Z" fill="#FF3D3D"/>
<path d="M43.8096 51.3384V4.17845L44.7896 2.03845H54.1595L56.2996 3.67845V22.4085L56.9495 24.5485L66.6495 24.3885L67.4695 2.03845H79.6296V51.3384L78.6395 53.1385H69.2795L67.4695 51.3384L67.3096 38.6785L66.4796 37.0385L57.1196 36.8785L55.9695 38.6785V51.1684L54.9796 53.1385H45.7795L43.8096 51.3384Z" fill="#FF3D3D"/>
<path d="M163.59 10.2484C159.9 4.23843 153.7 2.40844 152.09 1.99844C144.53 1.89844 136.97 1.80844 129.41 1.70844V53.3084C133.79 53.1984 138.18 53.0884 142.56 52.9784V36.8784C149.41 39.1084 156.87 37.3084 161.62 32.2784C167.48 26.0584 167.54 16.6884 163.59 10.2484ZM152.42 21.9184C152.42 21.9184 151.76 25.0384 142.56 24.2184V15.0184H150.78C150.78 15.0184 155.71 19.1284 152.42 21.9184Z" fill="#FF3D3D"/>
<path d="M202.04 30.2984C206.64 25.5584 208.03 18.5584 205.62 12.4884C203.3 6.64844 197.83 2.59844 191.53 2.02844H170.82V53.1384C179.81 53.0784 188.79 53.0284 197.77 52.9784C203.38 52.0784 207.67 47.6084 208.25 42.2284C208.77 37.4784 206.33 32.7784 202.04 30.2984ZM191.7 15.1784C192 15.3984 193.72 16.7084 194 19.0784C194.34 21.9784 192.22 23.8884 192.03 24.0484C189.01 24.0484 185.99 24.0584 182.97 24.0584C182.86 21.0984 182.76 18.1384 182.66 15.1784H191.7V15.1784ZM193.83 42.7884H182.33V35.5584C185.94 35.4984 189.56 35.4384 193.17 35.3984C193.47 35.6884 194.87 37.0984 194.92 39.3384C194.96 41.1184 194.13 42.3784 193.83 42.7884Z" fill="#FF3D3D"/>
<path d="M240.82 3.02842C235.58 -0.411584 229.96 0.538415 226.33 1.15842C223.04 1.71842 219.22 2.36842 216.17 5.65842C212.94 9.15842 212.6 13.4884 212.56 15.0184V53.1384H225.04V43.1184H236.22V53.1384H248.05V14.1984C247.75 12.6484 246.34 6.62842 240.82 3.02842ZM235.24 28.9884C231.84 29.0484 228.43 29.0984 225.04 29.1484C224.99 25.0484 224.94 20.9284 224.89 16.8184C225.54 16.2984 226.96 15.2984 229 15.0084C232.27 14.5584 234.7 16.2584 235.25 16.6484V28.9884H235.24Z" fill="#FF3D3D"/>
<path d="M279.28 34.2484L290.13 37.2084C290.13 37.2084 291.44 56.2484 271.07 54.4484C250.69 52.6484 253.65 34.2484 253.65 34.2484L253.5 16.4984C253.59 15.4684 254.3 8.55841 260.23 4.55841C263.35 2.45841 266.51 2.09841 268.11 2.03841C269.49 1.59841 275.28 -0.0515877 281.45 2.89841C285.92 5.02841 288.26 8.45841 289.14 9.92841C289.47 12.4484 289.81 14.9684 290.14 17.4884C286.3 18.6984 282.46 19.8984 278.62 21.1084C279.23 17.7184 277.59 14.4784 274.97 13.2984C271.63 11.7984 266.93 13.7584 265.52 18.1484C265.6 24.5084 265.69 30.8684 265.77 37.2284C266.71 41.2384 270.83 43.5784 274.5 42.5184C277.86 41.5184 280.05 37.9184 279.28 34.2484Z" fill="#FF3D3D"/>
<path d="M295.38 1.70844C299.21 1.92844 303.05 2.14844 306.88 2.36844C306.99 8.60844 307.1 14.8584 307.21 21.0984C311.92 14.7484 316.63 8.38844 321.34 2.03844H336.13C330.43 10.3584 324.74 18.6784 319.04 26.9884C324.74 35.2084 330.43 43.4384 336.13 51.6584L323.31 53.1384L311.48 37.8584L307.86 40.4884L307.53 53.1384H295.37V1.70844H295.38Z" fill="#FF3D3D"/>
<path d="M122.19 38.8484V14.8584C121.79 13.0284 120.22 6.94843 114.58 3.11843C107.84 -1.45157 97.8503 -1.05157 91.9503 4.66843C88.0403 8.45843 87.2303 13.3284 87.0303 15.1784V40.1484C87.4703 42.4284 89.0003 48.3684 94.2503 51.9884C102.73 57.8184 116.32 54.4684 120.67 46.4784C122.19 43.6784 122.31 40.7984 122.19 38.8484ZM109.52 37.5984C108.1 41.8884 103.65 43.6784 100.89 40.5484C99.1703 38.6084 98.6703 35.4184 98.5203 34.1984V20.7984C98.5903 19.7984 98.8603 17.1884 100.13 15.1484C102.06 12.0784 105.32 11.8684 107.52 14.3184C109.36 16.3784 109.88 19.6284 110 20.6084V33.4984C110.06 34.5384 110.01 36.0884 109.52 37.5984Z" fill="#FF3D3D"/>
</svg>