<svg width="296" height="79" viewBox="0 0 296 79" fill="none" xmlns="http://www.w3.org/2000/svg">
<path d="M271.23 42.89C272.47 38.97 275.98 36.48 280.1 36.48C284.15 36.48 287.94 39.18 289.17 42.9L289.37 43.11H271.18L271.23 42.89ZM293.31 48.46C293.37 48.46 293.37 48.46 293.46 48.46C293.52 48.46 293.52 48.46 293.52 48.46C294.35 48.44 295.06 47.6301 295.06 46.8101C295.06 46.7001 295.06 46.61 295.05 46.6C295.05 46.6 295.05 46.6001 295.05 46.5001C295.05 37.9301 288.36 31.1201 280.11 31.1201C271.88 31.1201 265.25 37.9201 265.25 46.4901C265.25 47.1501 265.25 47.8 265.37 48.45H265.38L265.44 48.64C265.84 51.66 267.11 54.43 269.17 56.71C271.44 59.26 274.53 61.04 278.04 61.66H278.25C278.46 61.66 278.49 61.66 278.66 61.7C283.2 62.27 287.29 61.6601 290.63 59.9301C291.46 59.4901 292.28 58.9801 292.9 58.5601C293.11 58.3601 293.31 58.17 293.52 58.11C293.52 57.94 293.63 57.9401 293.71 57.9401C294.4 57.1101 294.52 56.85 293.98 56.08C293.52 55.25 293.11 54.64 292.7 54.02C292.49 53.82 292.46 53.61 292.29 53.52C292.29 53.4 292.29 53.4 292.29 53.4C292.27 53.4 292.27 53.4 292.25 53.4H292.24C291.81 52.78 291.47 52.7801 291.06 53.1901C291.04 53.1901 290.85 53.4 290.85 53.4C287.55 56.29 283.01 57.26 278.56 56.29C277.72 56.08 277.01 55.83 276.21 55.46C273.48 54.01 271.47 51.54 270.85 48.65V48.45L293.31 48.46ZM235.75 42.8801C236.99 38.9601 240.49 36.47 244.64 36.47C248.71 36.47 252.45 39.17 253.72 42.89L253.9 43.1H235.75V42.8801ZM257.87 48.46C257.93 48.46 257.93 48.46 258.02 48.46C258.03 48.46 258.03 48.46 258.03 48.46C258.86 48.44 259.62 47.6301 259.62 46.8101C259.62 46.7001 259.62 46.61 259.61 46.6C259.61 46.6 259.61 46.6001 259.61 46.5001C259.61 37.9301 252.87 31.1201 244.64 31.1201C236.44 31.1201 229.77 37.9201 229.76 46.4901C229.76 47.1501 229.76 47.8001 229.93 48.4401H229.94L229.97 48.6301C230.38 51.6501 231.62 54.42 233.68 56.7C235.94 59.25 239.04 61.03 242.54 61.65H242.76C242.96 61.65 243.04 61.6501 243.17 61.6901C247.71 62.2601 251.83 61.65 255.14 59.92C255.97 59.48 256.79 58.97 257.41 58.55C257.62 58.35 257.82 58.16 258.03 58.1C258.03 57.93 258.18 57.9301 258.23 57.9301C258.95 57.1001 259.05 56.8401 258.53 56.0701C258.03 55.2401 257.62 54.6301 257.2 54.0101C256.99 53.8101 256.99 53.6001 256.79 53.5101C256.79 53.3901 256.79 53.39 256.79 53.39H256.78C256.35 52.77 255.97 52.7701 255.55 53.1801L255.34 53.39C252.04 56.28 247.5 57.25 243.09 56.28C242.25 56.07 241.52 55.82 240.69 55.45C238 54 235.94 51.53 235.33 48.64V48.4401L257.87 48.46ZM208.71 56.9C203.14 56.9 198.61 52.5701 198.45 46.9901V46.48C198.61 41.02 203.15 36.6 208.72 36.6C214.3 36.6 218.89 41.16 218.89 46.8C218.89 52.36 214.29 56.9 208.71 56.9ZM208.72 31.17C205.02 31.17 201.57 32.4101 198.81 34.6801L198.45 35.0101V32.1301C198.45 31.3001 198.34 31.16 197.53 31.16H194C193.2 31.16 193.06 31.3001 193.06 32.1301L193.05 77.4401C193.05 78.1401 193.19 78.35 193.99 78.35H197.52C198.31 78.35 198.44 78.1501 198.44 77.4401V58.54L198.8 58.7501C201.57 61.0201 205.01 62.2601 208.71 62.2601C217.37 62.2601 224.39 55.33 224.39 46.79C224.4 38.13 217.38 31.17 208.72 31.17ZM171.95 56.5001C166.27 56.5001 161.74 52.04 161.74 46.48C161.74 40.93 166.28 36.47 171.96 36.47C177.63 36.47 182.17 40.9401 182.17 46.4901C182.16 52.0401 177.61 56.5001 171.95 56.5001ZM171.95 31.11C163.28 31.11 156.27 37.9101 156.27 46.5001C156.27 55.0401 163.28 61.85 171.95 61.85C180.61 61.85 187.64 55.0501 187.64 46.5101C187.63 37.9101 180.62 31.11 171.95 31.11ZM136.98 31.39C133.87 31.39 130.79 32.38 128.23 34.29L127.92 34.55V13.5001C127.92 12.7301 127.69 12.52 127 12.52H123.26C122.54 12.52 122.33 12.7201 122.33 13.5001L122.32 61.42C122.32 62.24 122.53 62.45 123.25 62.45H126.99C127.68 62.45 127.91 62.2 127.91 61.42V45.7401C127.99 40.8201 132.01 36.8701 136.97 36.8701C142.01 36.8701 146.04 40.87 146.04 45.83V61.4301C146.04 62.2501 146.18 62.46 146.97 62.46H150.68C151.5 62.46 151.61 62.2501 151.61 61.4301V45.7501C151.62 37.9101 145.02 31.39 136.98 31.39ZM84.9798 53.72L84.9698 53.7501C84.4098 54.5301 84.1698 54.81 84.0598 55.02C83.6498 55.63 83.7098 55.96 84.3598 56.46C85.8098 57.7 87.7698 58.9401 89.0598 59.5601C92.6698 61.4101 96.5398 62.24 100.68 62.45C103.34 62.48 106.74 61.8301 109.22 60.8101C113.76 58.7501 116.64 54.82 117.13 50.03C117.94 42.18 112.83 37.3 99.7098 33.35H99.6998C93.5498 31.31 90.6598 28.6601 90.6598 25.0601C90.8598 20.9901 94.6198 17.9 99.7098 17.72C103.76 17.75 107.37 18.91 110.94 21.2C111.7 21.61 112.01 21.5201 112.52 20.8201C112.59 20.7901 112.73 20.58 113.44 19.55C114.07 18.72 114.27 18.3101 114.27 18.3101C114.7 17.4801 114.68 17.15 113.88 16.66C113.14 16.04 111.03 15.0101 109.83 14.4901C106.43 13.1501 102.92 12.53 99.4798 12.53C91.5698 12.73 85.3898 17.8901 84.9698 24.6201C84.7498 29.4401 87.2298 33.3601 92.3898 36.2501C93.8398 37.0801 99.0998 39.0801 101.57 39.7601C108.58 41.8201 112.29 45.59 111.48 50.08C110.84 54.2 106.56 56.8801 100.62 57.0701C96.2898 56.8801 91.9098 55.36 88.1498 52.55C88.1298 52.55 88.0398 52.37 87.8398 52.34C87.5998 52.14 87.5998 52.1401 87.5298 52.1201C86.7998 51.5101 86.2998 51.52 85.8698 52.33C85.8098 52.34 85.2498 53.24 84.9798 53.72Z" fill="#EE4D2D"/>
<path d="M43.5 53.82C43.1 57.26 41.01 60.05 37.78 61.43C35.97 62.19 33.55 62.61 31.61 62.49C28.62 62.36 25.83 61.62 23.21 60.31C22.31 59.81 20.91 58.88 19.85 58.01C19.59 57.76 19.54 57.64 19.73 57.38C19.81 57.23 20 56.95 20.38 56.39C20.96 55.57 21.03 55.46 21.09 55.35C21.28 55.08 21.56 55.06 21.86 55.27C21.9 55.31 21.9 55.31 21.92 55.33C21.96 55.37 21.96 55.37 22.07 55.45C22.18 55.53 22.26 55.57 22.28 55.62C25.08 57.81 28.34 59.06 31.63 59.18C36.2 59.12 39.48 57.07 40.08 53.89C40.7 50.44 37.98 47.42 32.66 45.74C30.98 45.24 26.76 43.56 25.99 43.09C22.34 40.95 20.63 38.15 20.88 34.67C21.25 29.86 25.72 26.29 31.36 26.26C33.86 26.26 36.39 26.78 38.78 27.79C39.64 28.16 41.19 28.99 41.7 29.39C42.01 29.62 42.07 29.87 41.88 30.15C41.82 30.32 41.63 30.57 41.31 31.12C40.84 31.83 40.82 31.86 40.74 32.02C40.57 32.28 40.34 32.3 40.02 32.12C37.46 30.38 34.57 29.51 31.42 29.44C27.5 29.5 24.55 31.84 24.36 35.04C24.32 37.91 26.47 40.01 31.12 41.59C40.58 44.63 44.19 48.19 43.5 53.82ZM31.85 4.19995C37.99 4.19995 43.01 10.03 43.26 17.34H20.45C20.67 10.03 25.7 4.19995 31.85 4.19995ZM63.69 18.73C63.69 17.97 63.1 17.35 62.35 17.35H62.3H47.55C47.18 7.70998 40.28 0 31.85 0C23.41 0 16.53 7.69998 16.16 17.35H1.35001C0.610006 17.37 0.019989 17.97 0.019989 18.73C0.019989 18.77 0.019989 18.79 0.019989 18.84H0L2.09 65.35C2.09 65.48 2.10999 65.6 2.10999 65.75C2.10999 65.78 2.10999 65.79 2.10999 65.84V65.91L2.13 65.93C2.45 69.17 4.78999 71.76 7.98999 71.89V71.91L54.96 71.92C54.98 71.92 55 71.92 55.02 71.92C55.06 71.92 55.06 71.92 55.08 71.92H55.18V71.9C58.43 71.82 61.09 69.19 61.34 65.91L61.35 65.85C61.35 65.82 61.35 65.79 61.35 65.76C61.35 65.67 61.37 65.61 61.37 65.51L63.67 18.81C63.69 18.78 63.69 18.75 63.69 18.73Z" fill="#EE4D2D"/>
</svg>