<svg width="286" height="86" viewBox="0 0 286 86" fill="none" xmlns="http://www.w3.org/2000/svg">
<path d="M42.82 0C19.17 0 0 19.17 0 42.82C0 66.47 19.17 85.64 42.82 85.64C66.47 85.64 85.64 66.47 85.64 42.82C85.65 19.17 66.48 0 42.82 0ZM62.46 61.76C61.69 63.02 60.05 63.42 58.79 62.64C48.74 56.5 36.08 55.11 21.17 58.51C19.73 58.84 18.3 57.94 17.97 56.5C17.64 55.06 18.54 53.63 19.98 53.3C36.29 49.57 50.28 51.18 61.57 58.08C62.84 58.86 63.23 60.5 62.46 61.76ZM67.7 50.1C66.73 51.67 64.68 52.17 63.11 51.2C51.6 44.13 34.05 42.08 20.44 46.21C18.67 46.74 16.81 45.75 16.27 43.99C15.74 42.22 16.73 40.36 18.5 39.83C34.05 35.11 53.38 37.4 66.6 45.52C68.17 46.48 68.67 48.53 67.7 50.1ZM68.15 37.96C54.35 29.76 31.58 29.01 18.4 33.01C16.28 33.65 14.05 32.46 13.41 30.34C12.77 28.22 13.96 25.99 16.08 25.34C31.21 20.75 56.35 21.64 72.24 31.07C74.15 32.2 74.77 34.66 73.64 36.56C72.52 38.46 70.05 39.09 68.15 37.96ZM116.51 39.53C109.12 37.77 107.8 36.53 107.8 33.93C107.8 31.47 110.11 29.82 113.55 29.82C116.88 29.82 120.19 31.08 123.65 33.66C123.75 33.74 123.89 33.77 124.01 33.75C124.14 33.73 124.26 33.66 124.33 33.55L127.94 28.46C128.09 28.25 128.05 27.96 127.85 27.8C123.72 24.49 119.08 22.88 113.65 22.88C105.67 22.88 100.09 27.67 100.09 34.53C100.09 41.88 104.9 44.48 113.22 46.49C120.29 48.12 121.49 49.48 121.49 51.93C121.49 54.63 119.08 56.32 115.19 56.32C110.87 56.32 107.35 54.86 103.41 51.46C103.31 51.37 103.18 51.34 103.06 51.34C102.93 51.35 102.81 51.41 102.73 51.51L98.68 56.33C98.51 56.53 98.53 56.83 98.73 57C103.31 61.09 108.95 63.25 115.03 63.25C123.63 63.25 129.19 58.55 129.19 51.27C129.21 45.13 125.53 41.73 116.52 39.54C116.52 39.54 116.51 39.53 116.51 39.53ZM148.65 32.24C144.92 32.24 141.86 33.71 139.34 36.72V33.33C139.34 33.06 139.13 32.84 138.86 32.84H132.24C131.97 32.84 131.76 33.06 131.76 33.33V70.97C131.76 71.24 131.97 71.46 132.24 71.46H138.86C139.13 71.46 139.34 71.24 139.34 70.97V59.08C141.87 61.91 144.92 63.29 148.65 63.29C155.58 63.29 162.59 57.96 162.59 47.76C162.6 37.57 155.59 32.24 148.65 32.24ZM154.89 47.77C154.89 52.96 151.69 56.59 147.11 56.59C142.58 56.59 139.17 52.8 139.17 47.77C139.17 42.74 142.59 38.96 147.11 38.96C151.62 38.95 154.89 42.66 154.89 47.77ZM180.57 32.24C171.65 32.24 164.66 39.11 164.66 47.88C164.66 56.56 171.6 63.35 180.47 63.35C189.42 63.35 196.43 56.5 196.43 47.76C196.42 39.06 189.46 32.24 180.57 32.24ZM180.57 56.64C175.82 56.64 172.25 52.83 172.25 47.77C172.25 42.69 175.71 39.01 180.47 39.01C185.25 39.01 188.85 42.82 188.85 47.88C188.84 52.95 185.36 56.64 180.57 56.64ZM215.48 32.84H208.19V25.39C208.19 25.12 207.98 24.91 207.71 24.91H201.09C200.82 24.91 200.6 25.13 200.6 25.39V32.84H197.42C197.15 32.84 196.94 33.06 196.94 33.33V39.02C196.94 39.29 197.15 39.51 197.42 39.51H200.6V54.23C200.6 60.18 203.56 63.19 209.41 63.19C211.78 63.19 213.75 62.7 215.61 61.65C215.76 61.57 215.86 61.4 215.86 61.23V55.81C215.86 55.65 215.77 55.49 215.63 55.4C215.49 55.31 215.31 55.3 215.16 55.38C213.89 56.02 212.65 56.32 211.27 56.32C209.15 56.32 208.2 55.35 208.2 53.2V39.52H215.49C215.76 39.52 215.97 39.3 215.97 39.03V33.34C215.97 33.06 215.75 32.85 215.48 32.84ZM240.86 32.87V31.96C240.86 29.27 241.89 28.07 244.2 28.07C245.58 28.07 246.69 28.34 247.93 28.76C248.08 28.81 248.24 28.78 248.36 28.69C248.49 28.6 248.56 28.45 248.56 28.3V22.72C248.56 22.51 248.43 22.32 248.22 22.26C246.91 21.87 245.23 21.47 242.72 21.47C236.61 21.47 233.37 24.91 233.37 31.42V32.82H230.19C229.92 32.82 229.7 33.04 229.7 33.3V39.02C229.7 39.29 229.92 39.51 230.19 39.51H233.37V62.22C233.37 62.49 233.59 62.71 233.86 62.71H240.48C240.75 62.71 240.97 62.5 240.97 62.22V39.52H247.15L256.62 62.22C255.55 64.6 254.49 65.08 253.05 65.08C251.88 65.08 250.65 64.73 249.4 64.04C249.28 63.98 249.14 63.97 249.02 64C248.89 64.05 248.78 64.14 248.73 64.26L246.49 69.18C246.38 69.42 246.47 69.69 246.7 69.81C249.04 71.08 251.15 71.62 253.77 71.62C258.66 71.62 261.36 69.34 263.74 63.21L275.22 33.53C275.28 33.38 275.26 33.21 275.17 33.08C275.08 32.95 274.93 32.87 274.78 32.87H267.89C267.68 32.87 267.5 33 267.43 33.2L260.37 53.36L252.64 33.18C252.57 32.99 252.39 32.87 252.19 32.87H240.86ZM226.14 32.84H219.52C219.25 32.84 219.03 33.06 219.03 33.33V62.21C219.03 62.48 219.25 62.7 219.52 62.7H226.14C226.41 62.7 226.63 62.49 226.63 62.21V33.33C226.63 33.06 226.41 32.84 226.14 32.84ZM222.87 19.69C220.25 19.69 218.12 21.81 218.12 24.44C218.12 27.06 220.25 29.19 222.87 29.19C225.49 29.19 227.62 27.06 227.62 24.44C227.62 21.81 225.49 19.69 222.87 19.69ZM280.87 42.13C278.25 42.13 276.21 40.03 276.21 37.47C276.21 34.91 278.28 32.79 280.89 32.79C283.51 32.79 285.55 34.89 285.55 37.45C285.55 40 283.48 42.13 280.87 42.13ZM280.89 33.25C278.5 33.25 276.7 35.15 276.7 37.47C276.7 39.79 278.49 41.66 280.87 41.66C283.26 41.66 285.06 39.76 285.06 37.44C285.06 35.12 283.26 33.25 280.89 33.25ZM281.92 37.92L283.24 39.76H282.13L280.94 38.07H279.92V39.76H278.99V34.87H281.17C282.31 34.87 283.06 35.45 283.06 36.43C283.06 37.24 282.6 37.73 281.92 37.92ZM281.14 35.72H279.93V37.27H281.14C281.74 37.27 282.11 36.97 282.11 36.5C282.1 35.99 281.74 35.72 281.14 35.72Z" fill="#1ED760"/>
</svg>