<svg width="224" height="76" viewBox="0 0 224 76" fill="none" xmlns="http://www.w3.org/2000/svg">
<path d="M193.649 12.61C193.869 12.14 194.329 11.25 197.469 8.06C200.589 4.9 202.149 3.31001 204.099 2.20001C205.359 1.48001 207.379 0.52 210.179 0C210.179 17.64 210.179 35.28 210.179 52.92C210.049 58.17 211.389 60.34 212.839 61.27C215.829 63.19 219.959 60.3 222.069 62.53C222.699 63.19 222.799 64.76 222.999 67.9C223.229 71.43 223.319 73.22 222.429 74.19C221.769 74.9 220.939 75.06 216.789 75.14C211.769 75.23 209.259 75.28 207.589 74.93C206.639 74.73 203.219 73.99 200.319 72.05C193.429 67.45 192.649 58.22 192.529 56.63C193.209 37.14 193.379 23.99 192.809 19.11C192.709 18.19 192.329 15.44 193.649 12.61Z" fill="#FE2842"/>
<path d="M21.9691 33.46C20.2591 32.52 18.8391 31.47 18.3291 29.74C17.9091 28.33 18.1391 26.64 19.0291 25.4C20.2891 23.65 22.5891 23.39 24.9991 23.15C28.9991 22.76 32.7791 23.53 34.6891 24C38.3391 24.91 39.5091 25.56 40.8891 24.78C42.2891 23.98 42.7991 22.28 43.3691 20.36C43.8791 18.65 44.3491 17.09 43.6791 15.63C42.9691 14.07 41.3291 13.4 39.9591 12.92C33.3391 10.59 27.0091 10.59 26.0091 10.59C20.8291 10.63 18.2291 10.65 14.9991 11.75C13.0191 12.43 9.02912 13.79 5.74912 17.56C1.99912 21.88 -0.100892 28.5 1.73911 34.77C2.13911 36.13 3.31911 39.53 6.39911 42.37C8.93911 44.72 11.5891 45.58 15.9291 46.94C22.5891 49.03 25.1991 48.42 27.9291 51.23C28.6191 51.93 30.2291 53.64 30.0391 55.78C29.8591 57.78 28.1991 59.09 27.2491 59.81C22.7291 63.26 16.7091 62.72 14.8491 62.52C8.09912 61.82 5.08913 58.81 2.94913 60.58C2.13913 61.25 1.71913 62.76 0.889132 65.78C0.219132 68.23 -0.120874 69.45 0.0391259 70.2C0.919126 74.37 12.0191 75.97 20.0391 75.55C24.3591 75.32 29.6891 74.97 35.3091 71.52C37.5691 70.13 41.7791 67.54 44.2391 62.28C47.0191 56.34 46.8591 48.47 42.7491 42.99C40.3491 39.79 37.2191 38.23 36.3191 37.8C31.2791 35.37 27.8691 36.71 21.9691 33.46Z" fill="#FE2842"/>
<path opacity="0.27" d="M163.779 75.04C166.389 73.76 167.349 70.74 167.709 69.67C169.459 64.43 177.459 43.98 188.489 15.72C188.489 15.72 188.949 15.07 188.719 14.39C188.359 13.3 186.299 13.1 183.219 12.93C177.579 12.63 174.739 12.49 173.569 13.13C170.589 14.76 169.689 18.41 169.269 20.07C167.339 27.64 163.139 41.18 157.489 59.24C156.569 56.03 145.979 19.28 144.359 15.21C144.229 14.88 143.949 14.26 143.329 13.87C141.419 12.67 137.939 14.76 136.709 15.73C130.209 20.87 133.999 36.46 134.909 40.22C135.919 44.38 137.719 48.66 141.279 57.05C143.879 63.2 146.189 68.23 147.839 71.74C149.469 74.26 151.289 75.15 152.209 75.49C153.379 75.92 155.139 75.85 158.619 75.69C161.479 75.53 162.929 75.46 163.779 75.04Z" fill="#FE2842"/>
<path d="M50.8392 12.61C51.1192 12.34 52.0392 11.57 56.6992 11.68C60.0092 11.76 62.6892 12.22 64.4492 12.61C65.0492 13.38 67.0292 14.6 67.4292 16.95C67.8592 19.43 76.5392 59.74 76.5392 59.74L87.3892 16.95C87.3892 16.95 89.8692 11.99 92.6592 12.61C95.4492 13.23 101.339 12.56 101.339 12.56C101.339 12.56 105.679 12.61 106.299 17.26C106.919 21.91 117.149 59.74 117.149 59.74L125.829 18.81C125.829 18.81 127.999 12.19 132.339 12.55C136.679 12.91 142.879 14.15 142.879 14.15L125.829 69.66C125.829 69.66 125.209 74.84 120.249 75.5C118.389 75.75 116.149 75.8 113.119 75.5C112.109 75.4 111.209 75.27 110.989 75.23C105.929 74.31 102.479 55.11 102.069 52.76C100.069 45.88 98.0692 39.01 96.0592 32.13C92.5492 44.74 89.0292 57.35 85.5192 69.96C85.5192 69.96 85.5192 75.76 78.6992 75.49C71.8792 75.23 70.6392 75.49 70.6392 75.49C70.6392 75.49 67.2292 77.4 64.4392 65.3C61.6492 53.2 50.8292 20.96 50.8292 20.96C50.6892 20.62 48.3892 14.95 50.8392 12.61Z" fill="#FE2842"/>
</svg>