<svg fill="none" xmlns="http://www.w3.org/2000/svg" viewBox="0 0 16 14"><path d="M15.97 1.549c-.59.259-1.22.436-1.884.516A3.305 3.305 0 0015.528.25c-.634.37-1.337.64-2.085.79a3.28 3.28 0 00-5.59 2.988A9.29 9.29 0 011.094.61 3.215 3.215 0 00.65 2.26c0 1.14.58 2.142 1.459 2.73a3.27 3.27 0 01-1.485-.41v.04a3.282 3.282 0 002.63 3.219 3.33 3.33 0 01-1.474.056 3.291 3.291 0 003.069 2.278A6.578 6.578 0 010 11.532a9.33 9.33 0 005.038 1.473c6.036 0 9.333-4.998 9.333-9.324 0-.14 0-.28-.01-.42.64-.46 1.2-1.04 1.64-1.699l-.032-.013z" fill="#495975"/></svg>
