<svg xmlns="http://www.w3.org/2000/svg" viewBox="0 0 302.362 302.362"><path d="M0 302.362h302.362V0H0zm0 0" fill="#b31e30"/><path d="M108.974 95.17v14.859h3.398c4.289 0 6.234-2.086 6.234-7.921v-.914h4.992v23.06h-4.992v-.984c0-5.789-1.945-7.992-6.234-7.992h-3.398v16.616h14.249c6.491 0 8.835-4.289 9.608-12.491h5.18v17.787h-46.8v-5.296h3.96c2.46 0 3.773-.68 3.773-4.968V99.202c0-3.094-1.406-4.031-4.71-4.031H92.78c-3.398 0-5.015.797-6.21 4.335L73.657 137.19h-9.82l-7.475-24.56h-.14l-8.297 24.56H37.99L24.584 97.702c-.586-1.945-1.594-2.531-4.312-2.531h-.985v-5.273h20.67v5.273h-3c-1.57 0-2.202.937-2.202 1.875 0 .703.258 1.593.633 2.577l8.952 26.389h.14l8.53-24.818-1.195-3.375c-.726-2.11-2.156-2.648-4.241-2.648h-1.688v-5.273h21.35v5.273h-3.773c-1.453 0-2.016.632-2.016 1.57 0 .726.352 1.734.587 2.414l7.827 26.388H70l9.093-25.779c.282-.844.539-1.547.539-2.437 0-1.125-.539-2.156-3.047-2.156h-3.445v-5.273h64.87v16.17h-5.32c-1.079-6.843-1.688-10.897-11.18-10.897zm77.735 42.02v-17.787h-5.46c-.727 8.132-2.203 12.49-9.609 12.49h-10.757V98.453c0-2.625 1.078-3.281 4.219-3.281h4.007v-5.273h-26.13v5.273h4.124c2.86 0 3.82.937 3.82 3.093v30.466c0 2.484-1.359 3.164-3.374 3.164h-4.57v5.296zm48.535 0v-17.787h-5.484c-.727 8.132-2.25 12.49-9.562 12.49h-10.78V98.453c0-2.625 1.078-3.281 4.218-3.281h3.984v-5.273h-26.154v5.273h4.148c2.883 0 3.844.937 3.844 3.093v30.466c0 2.484-1.383 3.164-3.375 3.164h-4.617v5.296zm35.996-43.73c-.445-.445-4.804-4.968-13.311-4.968-8.929 0-17.952 4.523-17.952 14.225 0 8.788 7.008 12.796 15.07 14.53 2.671.562 4.265.867 6.702 1.382 6.046 1.29 10.077 3.117 10.077 7.312 0 3.187-3.375 6.609-10.054 6.609-9.327 0-14.858-5.203-16.006-13.147h-5.484v17.787h4.851l1.57-4.242c1.149 1.008 5.695 5.648 14.343 5.648 11.014 0 19.334-4.898 19.334-14.576 0-9.375-7.757-13.405-17.225-15.304-1.687-.421-3.234-.68-4.968-1.078-5.883-1.265-9.656-2.718-9.656-6.937 0-3.655 3.867-6.163 9.68-6.163 8.74 0 12.115 5.554 13.92 11.53h5.32v-16.17h-3.844zM54.182 210.918v-5.32H50.62c-3.304 0-4.523-.984-4.523-3.656v-12.89h2.93c4.429 0 6.35 1.922 6.35 6.937v1.57h4.969v-21.77h-4.968v.937c0 3.679-1.336 7.054-5.93 7.054h-3.35v-14.905H55.4c10.476 0 11.577 5.273 12.28 10.874h5.109v-16.147H28.029v5.273h4.734c2.132 0 3.327.96 3.327 2.671v30.56c0 1.992-1.078 3.492-3.609 3.492H28.03v5.32zm198.052-48.746c-15.514 0-25.779 10.85-25.779 25.076 0 14.202 10.265 25.146 25.78 25.146 15.466 0 25.755-10.944 25.755-25.146 0-14.225-10.289-25.076-25.756-25.076m0 5.578c11.202 0 14.553 9.304 14.553 19.498s-3.35 19.522-14.553 19.522c-11.272 0-14.6-9.328-14.6-19.522 0-10.194 3.328-19.498 14.6-19.498m-43.636-.281c-1.032-.914-5.46-5.297-14.202-5.297-13.991 0-22.78 10.663-22.78 25.076 0 14.53 8.93 25.146 22.78 25.146 8.905 0 13.733-4.078 14.834-5.085l2.649 3.609h4.85v-16.405c0-2.789 1.032-3.539 3.797-3.539h1.313v-5.296h-21.842v5.296h3.234c2.343 0 3.773 1.055 3.773 3.352v2.765c0 5.413-3.328 9.187-10.57 9.187-9.069 0-13.615-8.156-13.615-19.03 0-10.71 4.546-18.912 13.334-18.912 9.164 0 12.28 8.53 13.335 11.413h5.859v-16.147h-4.992zm-39.348 32.34v1.29c0 8.155-3.89 11.295-9.796 11.295-6.914 0-9.234-3.328-9.234-9.772v-2.461c0-8.132-3.468-11.413-11.39-11.413h-3.749v14.295c0 1.899.867 2.555 2.93 2.555h5.202v5.32H95.968v-5.32h5.25c1.452 0 1.991-.352 1.991-1.195 0-.446-.14-1.172-.422-1.945-.258-.633-2.484-6.726-2.484-6.726H83.43s-2.086 5.624-2.437 6.562c-.235.703-.422 1.288-.422 1.968 0 1.008.843 1.336 2.25 1.336h5.015v5.32H65.572v-5.32c3.773 0 6.164-.54 7.5-3.844l15.092-38.152h9.07l15.467 38.152c1.288 3.352 3.726 3.844 7.499 3.844h1.922c2.038 0 2.952-.656 2.952-2.555v-31.59c0-1.899-.726-2.578-2.952-2.578h-4.969v-5.273h31.075c10.312 0 15.163 4.874 15.163 12.256 0 9.164-9.116 10.968-13.381 11.203v.117c4.991.375 9.21 2.437 9.21 9.725v2.766c0 4.85 1.03 5.929 2.742 5.929 1.687 0 2.577-1.336 2.577-4.5v-1.289zm-70.892-9.327l-6.374-17.225h-.211l-6.374 17.225zm55.096-14.319c0-4.148-2.976-7.288-9.585-7.288h-8.788v14.6h8.788c6.094 0 9.585-2.742 9.585-7.312" fill="#ffcc02"/></svg>